<svg xmlns="http://www.w3.org/2000/svg" xmlns:xlink="http://www.w3.org/1999/xlink" width="420" zoomAndPan="magnify" viewBox="0 0 315 322.499991" height="430" preserveAspectRatio="xMidYMid meet" version="1.0"><defs><clipPath id="e66f2f97a5"><path d="M 1.710938 0 L 313 0 L 313 322 L 1.710938 322 Z M 1.710938 0 " clip-rule="nonzero"/></clipPath></defs><g clip-path="url(#e66f2f97a5)"><path fill="#ffffff" d="M 160.269531 320.601562 C 158.871094 322 156.769531 322 155.371094 320.601562 L 3.609375 171.660156 C 2.910156 170.960938 2.558594 170.261719 2.558594 169.214844 L 1.859375 146.839844 C 1.859375 145.789062 2.210938 145.089844 2.910156 144.390625 C 3.609375 143.691406 4.308594 143.34375 5.355469 143.34375 L 64.804688 143.34375 C 65.851562 143.34375 66.550781 143.691406 67.25 144.390625 L 158.171875 234.59375 L 248.390625 143.691406 C 249.089844 142.992188 249.789062 142.644531 250.835938 142.644531 L 295.246094 142.644531 C 296.296875 142.644531 297.695312 143.34375 298.042969 144.390625 L 312.382812 166.765625 C 313.082031 167.816406 313.082031 168.863281 312.730469 169.914062 C 312.730469 170.261719 312.382812 170.960938 312.03125 171.3125 Z M 1.859375 3.496094 L 2.558594 26.21875 C 2.558594 27.269531 2.910156 27.96875 3.609375 28.667969 L 155.371094 177.605469 C 156.769531 179.003906 158.871094 179.003906 160.269531 177.605469 L 312.03125 28.667969 C 312.382812 28.316406 312.730469 27.96875 312.730469 27.269531 C 313.082031 26.21875 313.082031 24.820312 312.382812 24.121094 L 298.042969 1.746094 C 297.695312 0.695312 296.296875 -0.00390625 295.246094 -0.00390625 L 250.835938 -0.00390625 C 249.789062 -0.00390625 249.089844 0.347656 248.390625 1.046875 L 158.171875 91.25 L 67.25 1.046875 C 66.550781 0.347656 65.851562 -0.00390625 64.804688 -0.00390625 L 5.355469 -0.00390625 C 4.308594 -0.00390625 3.609375 0.347656 2.910156 1.046875 C 2.210938 1.746094 1.859375 2.445312 1.859375 3.496094 Z M 1.859375 3.496094 " fill-opacity="1" fill-rule="nonzero"/></g></svg>