<svg xmlns="http://www.w3.org/2000/svg" xmlns:xlink="http://www.w3.org/1999/xlink" width="500" zoomAndPan="magnify" viewBox="0 0 375 374.999991" height="500" preserveAspectRatio="xMidYMid meet" version="1.0"><defs><clipPath id="f507f8ea01"><path d="M 0 25.910156 L 375 25.910156 L 375 349.160156 L 0 349.160156 Z M 0 25.910156 " clip-rule="nonzero"/></clipPath><clipPath id="33dad26c61"><path d="M 74 25.910156 L 300 25.910156 L 300 221 L 74 221 Z M 74 25.910156 " clip-rule="nonzero"/></clipPath></defs><g clip-path="url(#f507f8ea01)"><path fill="#41b883" d="M 299.910156 25.910156 L 374.851562 25.910156 L 187.5 349.160156 L 0.148438 25.910156 L 143.472656 25.910156 L 187.5 100.867188 L 230.589844 25.910156 Z M 299.910156 25.910156 " fill-opacity="1" fill-rule="nonzero"/><path fill="#41b883" d="M 0.148438 25.910156 L 187.5 349.160156 L 374.851562 25.910156 L 299.910156 25.910156 L 187.5 219.859375 L 74.152344 25.910156 Z M 0.148438 25.910156 " fill-opacity="1" fill-rule="nonzero"/></g><g clip-path="url(#33dad26c61)"><path fill="#35495e" d="M 74.152344 25.910156 L 187.5 220.796875 L 299.910156 25.910156 L 230.589844 25.910156 L 187.5 100.867188 L 143.472656 25.910156 Z M 74.152344 25.910156 " fill-opacity="1" fill-rule="nonzero"/></g></svg>