<svg xmlns="http://www.w3.org/2000/svg" xmlns:xlink="http://www.w3.org/1999/xlink" width="500" zoomAndPan="magnify" viewBox="0 0 375 374.999991" height="500" preserveAspectRatio="xMidYMid meet" version="1.0"><defs><clipPath id="3370e39cf3"><path d="M 21.050781 0 L 354 0 L 354 375 L 21.050781 375 Z M 21.050781 0 " clip-rule="nonzero"/></clipPath></defs><g clip-path="url(#3370e39cf3)"><path fill="#264de4" d="M 187.40625 375.015625 L 51.542969 337.308594 L 21.269531 -2.203125 L 353.949219 -2.207031 L 323.65625 337.253906 L 187.414062 375.011719 Z M 187.40625 375.015625 " fill-opacity="1" fill-rule="nonzero"/></g><path fill="#2965f1" d="M 297.710938 315.640625 L 323.609375 25.558594 L 187.617188 25.554688 L 187.617188 346.144531 L 297.710938 315.636719 Z M 297.710938 315.640625 " fill-opacity="1" fill-rule="nonzero"/><path fill="#ebebeb" d="M 90.679688 151.476562 L 94.410156 193.109375 L 187.617188 193.109375 L 187.617188 151.476562 Z M 90.679688 151.476562 " fill-opacity="1" fill-rule="nonzero"/><path fill="#ebebeb" d="M 83.179688 67.1875 L 86.964844 108.832031 L 187.617188 108.832031 L 187.617188 67.1875 Z M 83.179688 67.1875 " fill-opacity="1" fill-rule="nonzero"/><path fill="#ebebeb" d="M 187.617188 259.617188 L 187.433594 259.667969 L 141.046875 247.136719 L 138.082031 213.929688 L 96.273438 213.929688 L 102.109375 279.316406 L 187.421875 302.992188 L 187.617188 302.941406 Z M 187.617188 259.617188 " fill-opacity="1" fill-rule="nonzero"/><path fill="#ffffff" d="M 284.289062 151.476562 L 291.800781 67.1875 L 187.472656 67.1875 L 187.472656 108.832031 L 246.15625 108.832031 L 242.375 151.476562 L 187.472656 151.476562 L 187.472656 193.109375 L 238.765625 193.109375 L 233.925781 247.113281 L 187.472656 259.65625 L 187.472656 302.96875 L 272.851562 279.316406 L 273.480469 272.277344 L 283.273438 162.652344 Z M 284.289062 151.476562 " fill-opacity="1" fill-rule="nonzero"/></svg>