<svg xmlns="http://www.w3.org/2000/svg" xmlns:xlink="http://www.w3.org/1999/xlink" width="500" zoomAndPan="magnify" viewBox="0 0 375 374.999991" height="500" preserveAspectRatio="xMidYMid meet" version="1.0"><path fill="#ffffff" d="M 339.84375 152.34375 L 222.65625 152.34375 L 222.65625 35.15625 C 222.65625 15.738281 206.917969 0 187.5 0 C 168.082031 0 152.34375 15.738281 152.34375 35.15625 L 152.34375 152.34375 L 35.15625 152.34375 C 15.738281 152.34375 0 168.082031 0 187.5 C 0 206.917969 15.738281 222.65625 35.15625 222.65625 L 152.34375 222.65625 L 152.34375 339.84375 C 152.34375 359.261719 168.082031 375 187.5 375 C 206.917969 375 222.65625 359.261719 222.65625 339.84375 L 222.65625 222.65625 L 339.84375 222.65625 C 359.261719 222.65625 375 206.917969 375 187.5 C 375 168.082031 359.261719 152.34375 339.84375 152.34375 Z M 339.84375 152.34375 " fill-opacity="1" fill-rule="nonzero"/></svg>