<svg xmlns="http://www.w3.org/2000/svg" xmlns:xlink="http://www.w3.org/1999/xlink" width="500" zoomAndPan="magnify" viewBox="0 0 375 374.999991" height="500" preserveAspectRatio="xMidYMid meet" version="1.0"><defs><clipPath id="5ee6adcaa6"><path d="M 24 4 L 350.898438 4 L 350.898438 374.808594 L 24 374.808594 Z M 24 4 " clip-rule="nonzero"/></clipPath></defs><g clip-path="url(#5ee6adcaa6)"><path fill="#e44d26" d="M 350.808594 4.203125 L 321.046875 337.699219 L 187.257812 374.792969 L 53.839844 337.75 L 24.109375 4.203125 L 350.800781 4.199219 L 350.8125 4.199219 Z M 350.808594 4.203125 " fill-opacity="1" fill-rule="nonzero"/></g><path fill="#f16529" d="M 187.460938 346.4375 L 295.574219 316.464844 L 321.007812 31.480469 L 187.460938 31.476562 Z M 187.460938 346.4375 " fill-opacity="1" fill-rule="nonzero"/><path fill="#ebebeb" d="M 129.601562 113.289062 L 187.460938 113.289062 L 187.460938 72.378906 L 84.90625 72.378906 L 85.882812 83.355469 L 95.9375 196.085938 L 187.460938 196.085938 L 187.460938 155.1875 L 133.339844 155.1875 Z M 129.601562 113.289062 " fill-opacity="1" fill-rule="nonzero"/><path fill="#ebebeb" d="M 138.820312 216.542969 L 97.765625 216.542969 L 103.492188 280.78125 L 187.269531 304.039062 L 187.460938 303.988281 L 187.460938 261.425781 L 187.285156 261.476562 L 141.734375 249.167969 Z M 138.820312 216.542969 " fill-opacity="1" fill-rule="nonzero"/><path fill="#ffffff" d="M 187.320312 196.085938 L 237.6875 196.085938 L 232.9375 249.140625 L 187.320312 261.464844 L 187.320312 304.015625 L 271.164062 280.78125 L 271.78125 273.863281 L 281.398438 166.164062 L 282.394531 155.1875 L 187.320312 155.1875 Z M 187.320312 196.085938 " fill-opacity="1" fill-rule="nonzero"/><path fill="#ffffff" d="M 187.320312 113.1875 L 187.320312 113.289062 L 286.109375 113.289062 L 286.929688 104.09375 L 288.800781 83.355469 L 289.773438 72.378906 L 187.320312 72.378906 Z M 187.320312 113.1875 " fill-opacity="1" fill-rule="nonzero"/></svg>