<svg xmlns="http://www.w3.org/2000/svg" xmlns:xlink="http://www.w3.org/1999/xlink" width="500" zoomAndPan="magnify" viewBox="0 0 375 374.999991" height="500" preserveAspectRatio="xMidYMid meet" version="1.0"><defs><clipPath id="6497aa011a"><path d="M 0 9.800781 L 374 9.800781 L 374 365.300781 L 0 365.300781 Z M 0 9.800781 " clip-rule="nonzero"/></clipPath></defs><g clip-path="url(#6497aa011a)"><path fill="#764abc" d="M 258.226562 258.109375 C 272.035156 256.691406 282.515625 244.765625 282.03125 230.472656 C 281.550781 216.164062 269.65625 204.738281 255.378906 204.738281 L 254.414062 204.738281 C 239.667969 205.207031 228.242188 217.597656 228.710938 232.375 C 229.191406 239.53125 232.042969 245.71875 236.335938 250.003906 C 220.148438 281.941406 195.394531 305.304688 158.261719 324.835938 C 133.03125 338.175781 106.847656 342.945312 80.667969 339.609375 C 59.246094 336.757812 42.585938 327.21875 32.109375 311.492188 C 16.878906 288.144531 15.449219 262.878906 28.304688 237.613281 C 37.347656 219.5 51.628906 206.160156 60.671875 199.488281 C 58.769531 193.300781 55.914062 182.808594 54.484375 175.1875 C -14.542969 225.222656 -7.398438 292.898438 13.546875 324.835938 C 29.253906 348.667969 61.148438 363.441406 96.375 363.441406 C 105.894531 363.441406 115.417969 362.492188 124.9375 360.105469 C 185.867188 348.199219 232.042969 311.976562 258.226562 258.109375 Z M 342.015625 199.019531 C 305.835938 156.59375 252.515625 133.242188 191.578125 133.242188 L 183.964844 133.242188 C 179.683594 124.664062 170.640625 118.941406 160.644531 118.941406 L 159.695312 118.941406 C 144.933594 119.421875 133.507812 131.8125 133.984375 146.585938 C 134.460938 160.878906 146.351562 172.320312 160.644531 172.320312 L 161.59375 172.320312 C 172.070312 171.851562 181.117188 165.179688 184.914062 156.125 L 193.492188 156.125 C 229.660156 156.125 263.941406 166.601562 294.890625 187.097656 C 318.679688 202.824219 335.820312 223.320312 345.347656 248.101562 C 353.445312 268.117188 352.960938 287.660156 344.398438 304.339844 C 331.058594 329.605469 308.683594 343.429688 279.167969 343.429688 C 260.128906 343.429688 242.035156 337.707031 232.523438 333.421875 C 227.292969 338.175781 217.765625 345.8125 211.101562 350.566406 C 231.574219 360.105469 252.515625 365.34375 272.503906 365.34375 C 318.210938 365.34375 352.011719 340.09375 364.855469 314.828125 C 378.664062 287.191406 377.714844 239.53125 342.015625 199.019531 Z M 100.175781 266.214844 C 100.652344 280.507812 112.554688 291.949219 126.835938 291.949219 L 127.789062 291.949219 C 142.546875 291.480469 153.972656 279.085938 153.492188 264.3125 C 153.023438 250.003906 141.117188 238.578125 126.835938 238.578125 L 125.882812 238.578125 C 124.929688 238.578125 123.503906 238.578125 122.550781 239.046875 C 103.035156 206.640625 94.941406 171.371094 97.796875 133.242188 C 99.699219 104.644531 109.222656 79.863281 125.882812 59.367188 C 139.6875 41.730469 166.351562 33.152344 184.441406 32.679688 C 234.898438 31.722656 256.320312 94.636719 257.753906 119.898438 C 263.933594 121.328125 274.410156 124.664062 281.542969 127.046875 C 275.828125 49.835938 228.234375 9.800781 182.527344 9.800781 C 139.6875 9.800781 100.175781 40.78125 84.46875 86.535156 C 62.570312 147.539062 76.851562 206.160156 103.507812 252.390625 C 101.128906 255.726562 99.699219 260.976562 100.175781 266.214844 Z M 100.175781 266.214844 " fill-opacity="1" fill-rule="nonzero"/></g></svg>