<svg xmlns="http://www.w3.org/2000/svg" xmlns:xlink="http://www.w3.org/1999/xlink" width="500" zoomAndPan="magnify" viewBox="0 0 375 374.999991" height="500" preserveAspectRatio="xMidYMid meet" version="1.0"><path fill="#fff" d="M 246.953125 372.8125 C 250.425781 371.65625 253.859375 370.398438 257.253906 369.042969 C 260.652344 367.683594 264.003906 366.226562 267.316406 364.671875 C 270.625 363.117188 273.886719 361.46875 277.101562 359.722656 C 280.316406 357.972656 283.476562 356.136719 286.582031 354.203125 C 289.6875 352.273438 292.730469 350.25 295.71875 348.140625 C 298.707031 346.03125 301.628906 343.832031 304.484375 341.550781 C 307.34375 339.269531 310.128906 336.90625 312.847656 334.460938 C 315.566406 332.011719 318.210938 329.492188 320.78125 326.890625 C 323.351562 324.289062 325.84375 321.613281 328.253906 318.867188 C 330.667969 316.121094 332.996094 313.304688 335.246094 310.421875 C 337.492188 307.535156 339.652344 304.589844 341.726562 301.578125 C 343.800781 298.566406 345.78125 295.5 347.675781 292.371094 C 349.570312 289.246094 351.367188 286.066406 353.074219 282.832031 C 354.78125 279.601562 356.390625 276.320312 357.902344 272.992188 C 359.417969 269.664062 360.832031 266.296875 362.144531 262.886719 C 363.460938 259.476562 364.675781 256.03125 365.785156 252.550781 C 366.898438 249.066406 367.90625 245.554688 368.8125 242.015625 C 369.71875 238.476562 370.519531 234.910156 371.214844 231.324219 C 371.914062 227.734375 372.503906 224.128906 372.988281 220.507812 C 373.46875 216.886719 373.847656 213.253906 374.117188 209.609375 C 374.386719 205.964844 374.550781 202.316406 374.605469 198.660156 C 374.664062 195.007812 374.609375 191.355469 374.453125 187.703125 C 374.292969 184.050781 374.027344 180.410156 373.652344 176.773438 C 373.28125 173.136719 372.800781 169.515625 372.214844 165.910156 C 371.625 162.304688 370.933594 158.714844 370.136719 155.148438 C 369.339844 151.582031 368.4375 148.042969 367.433594 144.527344 C 366.425781 141.015625 365.320312 137.535156 364.109375 134.085938 C 362.898438 130.636719 361.585938 127.226562 360.175781 123.855469 C 358.765625 120.484375 357.253906 117.15625 355.648438 113.875 C 354.042969 110.589844 352.339844 107.355469 350.542969 104.175781 C 348.746094 100.992188 346.855469 97.863281 344.875 94.789062 C 342.894531 91.71875 340.824219 88.707031 338.667969 85.753906 C 336.507812 82.804688 334.265625 79.917969 331.9375 77.101562 C 329.609375 74.28125 327.203125 71.53125 324.714844 68.855469 C 322.222656 66.175781 319.65625 63.574219 317.015625 61.046875 C 314.371094 58.519531 311.65625 56.074219 308.871094 53.703125 C 306.085938 51.335938 303.230469 49.050781 300.308594 46.851562 C 297.390625 44.652344 294.40625 42.539062 291.359375 40.515625 C 288.316406 38.488281 285.214844 36.554688 282.054688 34.710938 C 278.894531 32.867188 275.683594 31.117188 272.421875 29.464844 C 269.160156 27.808594 265.855469 26.25 262.5 24.789062 C 259.148438 23.328125 255.753906 21.96875 252.320312 20.707031 C 248.886719 19.445312 245.417969 18.285156 241.917969 17.226562 C 238.414062 16.171875 234.886719 15.214844 231.328125 14.363281 C 227.769531 13.515625 224.191406 12.769531 220.589844 12.128906 C 216.984375 11.488281 213.367188 10.953125 209.734375 10.523438 C 206.101562 10.097656 202.460938 9.773438 198.808594 9.558594 C 195.15625 9.34375 191.5 9.238281 187.839844 9.238281 C 184.183594 9.238281 180.527344 9.34375 176.875 9.558594 C 173.222656 9.773438 169.582031 10.097656 165.949219 10.523438 C 162.316406 10.953125 158.695312 11.488281 155.09375 12.128906 C 151.492188 12.769531 147.914062 13.515625 144.355469 14.363281 C 140.796875 15.214844 137.269531 16.171875 133.765625 17.226562 C 130.265625 18.285156 126.796875 19.445312 123.363281 20.707031 C 119.929688 21.96875 116.535156 23.328125 113.183594 24.789062 C 109.828125 26.25 106.523438 27.808594 103.261719 29.464844 C 100 31.117188 96.789062 32.867188 93.628906 34.710938 C 90.46875 36.554688 87.367188 38.488281 84.324219 40.515625 C 81.277344 42.539062 78.292969 44.652344 75.375 46.851562 C 72.453125 49.050781 69.597656 51.335938 66.8125 53.703125 C 64.027344 56.074219 61.3125 58.519531 58.667969 61.046875 C 56.027344 63.574219 53.460938 66.175781 50.96875 68.855469 C 48.480469 71.53125 46.070312 74.28125 43.746094 77.101562 C 41.417969 79.921875 39.171875 82.804688 37.015625 85.753906 C 34.859375 88.707031 32.789062 91.71875 30.808594 94.789062 C 28.824219 97.863281 26.9375 100.992188 25.140625 104.175781 C 23.34375 107.355469 21.640625 110.589844 20.035156 113.875 C 18.425781 117.15625 16.917969 120.484375 15.507812 123.855469 C 14.097656 127.226562 12.785156 130.636719 11.574219 134.085938 C 10.363281 137.535156 9.257812 141.015625 8.25 144.53125 C 7.246094 148.042969 6.34375 151.582031 5.546875 155.148438 C 4.75 158.714844 4.058594 162.304688 3.46875 165.910156 C 2.882812 169.515625 2.402344 173.136719 2.03125 176.773438 C 1.65625 180.410156 1.390625 184.050781 1.230469 187.703125 C 1.074219 191.355469 1.019531 195.007812 1.078125 198.660156 C 1.132812 202.316406 1.296875 205.964844 1.566406 209.609375 C 1.835938 213.253906 2.210938 216.886719 2.695312 220.507812 C 3.179688 224.132812 3.769531 227.734375 4.46875 231.324219 C 5.164062 234.910156 5.964844 238.476562 6.871094 242.015625 C 7.777344 245.558594 8.785156 249.066406 9.898438 252.550781 C 11.007812 256.03125 12.222656 259.476562 13.539062 262.886719 C 14.851562 266.296875 16.265625 269.664062 17.78125 272.992188 C 19.292969 276.320312 20.902344 279.601562 22.609375 282.832031 C 24.316406 286.066406 26.113281 289.246094 28.007812 292.371094 C 29.902344 295.5 31.882812 298.566406 33.957031 301.578125 C 36.03125 304.589844 38.191406 307.535156 40.4375 310.421875 C 42.6875 313.304688 45.015625 316.121094 47.429688 318.867188 C 49.839844 321.613281 52.332031 324.289062 54.902344 326.890625 C 57.472656 329.492188 60.117188 332.015625 62.835938 334.460938 C 65.554688 336.90625 68.339844 339.269531 71.199219 341.550781 C 74.054688 343.832031 76.976562 346.03125 79.964844 348.140625 C 82.949219 350.25 85.996094 352.273438 89.101562 354.203125 C 92.207031 356.136719 95.367188 357.976562 98.582031 359.722656 C 101.792969 361.46875 105.058594 363.117188 108.367188 364.671875 C 111.679688 366.226562 115.03125 367.683594 118.429688 369.042969 C 121.824219 370.398438 125.257812 371.65625 128.730469 372.8125 C 138.097656 374.53125 141.457031 368.757812 141.457031 363.765625 C 141.457031 360.410156 141.457031 352.921875 141.457031 342.78125 C 141.445312 342.121094 141.367188 341.464844 141.214844 340.820312 C 141.066406 340.175781 140.851562 339.554688 140.574219 338.953125 C 140.292969 338.351562 139.953125 337.789062 139.550781 337.257812 C 139.152344 336.730469 138.703125 336.25 138.203125 335.816406 C 137.703125 335.382812 137.160156 335.003906 136.582031 334.683594 C 136 334.363281 135.390625 334.105469 134.757812 333.914062 C 134.125 333.722656 133.476562 333.597656 132.816406 333.539062 C 132.15625 333.484375 131.496094 333.496094 130.835938 333.578125 C 87.890625 338.179688 78.441406 306.746094 78.441406 306.746094 C 69.929688 285.140625 57.667969 279.367188 57.667969 279.367188 C 40.722656 267.742188 58.917969 267.976562 58.917969 267.976562 C 61.882812 268.386719 64.761719 269.128906 67.558594 270.199219 C 70.351562 271.273438 72.988281 272.648438 75.464844 274.324219 C 77.941406 276 80.199219 277.9375 82.230469 280.132812 C 84.261719 282.328125 86.019531 284.722656 87.5 287.324219 C 88.046875 288.386719 88.644531 289.417969 89.292969 290.425781 C 89.941406 291.429688 90.632812 292.40625 91.371094 293.34375 C 92.109375 294.285156 92.886719 295.191406 93.710938 296.058594 C 94.535156 296.929688 95.394531 297.753906 96.296875 298.542969 C 97.195312 299.332031 98.132812 300.074219 99.101562 300.773438 C 100.070312 301.476562 101.070312 302.128906 102.105469 302.734375 C 103.136719 303.339844 104.191406 303.898438 105.277344 304.40625 C 106.359375 304.914062 107.464844 305.371094 108.589844 305.773438 C 109.71875 306.179688 110.859375 306.527344 112.019531 306.828125 C 113.179688 307.125 114.347656 307.367188 115.53125 307.554688 C 116.710938 307.742188 117.902344 307.875 119.09375 307.949219 C 120.289062 308.027344 121.484375 308.046875 122.679688 308.011719 C 123.878906 307.976562 125.070312 307.886719 126.257812 307.742188 C 127.445312 307.59375 128.625 307.390625 129.792969 307.136719 C 130.960938 306.878906 132.117188 306.566406 133.253906 306.203125 C 134.394531 305.839844 135.515625 305.421875 136.617188 304.953125 C 137.382812 304.675781 138.101562 304.308594 138.769531 303.847656 C 139.441406 303.386719 140.042969 302.847656 140.578125 302.234375 C 141.109375 301.621094 141.558594 300.949219 141.917969 300.21875 C 142.277344 299.488281 142.542969 298.726562 142.707031 297.929688 C 143.386719 294.925781 144.347656 292.011719 145.597656 289.195312 C 145.753906 288.867188 145.894531 288.535156 146.015625 288.191406 C 146.136719 287.851562 146.234375 287.503906 146.316406 287.148438 C 146.398438 286.796875 146.460938 286.4375 146.5 286.078125 C 146.539062 285.71875 146.558594 285.355469 146.558594 284.992188 C 146.558594 284.628906 146.539062 284.269531 146.496094 283.910156 C 146.457031 283.546875 146.394531 283.191406 146.3125 282.839844 C 146.230469 282.484375 146.128906 282.136719 146.007812 281.796875 C 145.886719 281.453125 145.746094 281.121094 145.585938 280.792969 C 145.425781 280.46875 145.25 280.152344 145.054688 279.847656 C 144.859375 279.542969 144.644531 279.246094 144.417969 278.964844 C 144.1875 278.683594 143.945312 278.414062 143.6875 278.160156 C 143.425781 277.90625 143.15625 277.667969 142.867188 277.445312 C 142.582031 277.222656 142.285156 277.015625 141.976562 276.828125 C 141.664062 276.636719 141.347656 276.464844 141.015625 276.3125 C 140.6875 276.160156 140.351562 276.023438 140.007812 275.910156 C 139.664062 275.792969 139.3125 275.699219 138.957031 275.621094 C 102.492188 268.523438 68.679688 248.554688 68.679688 185.296875 C 68.625 181.460938 68.871094 177.644531 69.421875 173.847656 C 69.96875 170.050781 70.816406 166.320312 71.957031 162.660156 C 73.097656 158.996094 74.519531 155.445312 76.222656 152.007812 C 77.921875 148.570312 79.886719 145.285156 82.109375 142.160156 C 82.929688 141.054688 83.621094 139.875 84.191406 138.621094 C 84.757812 137.367188 85.183594 136.066406 85.472656 134.722656 C 85.765625 133.375 85.910156 132.015625 85.90625 130.640625 C 85.90625 129.265625 85.757812 127.902344 85.46875 126.558594 C 83.703125 117.71875 83.703125 108.878906 85.46875 100.039062 C 85.585938 99.453125 85.730469 98.875 85.90625 98.304688 C 86.082031 97.734375 86.289062 97.175781 86.523438 96.628906 C 86.757812 96.078125 87.019531 95.546875 87.308594 95.023438 C 87.601562 94.503906 87.917969 94 88.261719 93.511719 C 88.601562 93.023438 88.972656 92.554688 89.363281 92.101562 C 89.753906 91.652344 90.167969 91.226562 90.605469 90.820312 C 91.042969 90.410156 91.5 90.027344 91.976562 89.667969 C 92.453125 89.3125 92.945312 88.976562 93.457031 88.667969 C 93.96875 88.363281 94.496094 88.082031 95.035156 87.828125 C 95.578125 87.574219 96.128906 87.351562 96.695312 87.15625 C 97.257812 86.960938 97.832031 86.796875 98.410156 86.660156 C 98.992188 86.523438 99.582031 86.417969 100.171875 86.34375 C 100.765625 86.269531 101.359375 86.226562 101.957031 86.214844 C 102.554688 86.203125 103.148438 86.21875 103.746094 86.269531 C 104.339844 86.320312 104.929688 86.398438 105.515625 86.511719 C 106.101562 86.621094 106.683594 86.761719 107.253906 86.933594 C 116.851562 90.070312 125.882812 94.386719 134.351562 99.882812 C 136.625 101.246094 139.074219 102.128906 141.695312 102.535156 C 144.316406 102.941406 146.917969 102.835938 149.5 102.222656 C 162.164062 99.398438 174.984375 97.988281 187.957031 97.988281 C 200.933594 97.988281 213.753906 99.398438 226.417969 102.222656 C 229 102.835938 231.597656 102.941406 234.222656 102.535156 C 236.84375 102.128906 239.292969 101.246094 241.566406 99.882812 C 249.808594 94.546875 258.578125 90.308594 267.882812 87.167969 C 268.484375 86.984375 269.09375 86.835938 269.710938 86.71875 C 270.332031 86.597656 270.953125 86.515625 271.582031 86.464844 C 272.207031 86.414062 272.835938 86.398438 273.464844 86.414062 C 274.09375 86.429688 274.722656 86.480469 275.34375 86.566406 C 275.96875 86.648438 276.585938 86.765625 277.195312 86.917969 C 277.808594 87.066406 278.410156 87.25 279 87.464844 C 279.59375 87.679688 280.171875 87.925781 280.734375 88.203125 C 281.300781 88.480469 281.847656 88.785156 282.378906 89.121094 C 282.914062 89.457031 283.425781 89.820312 283.917969 90.210938 C 284.410156 90.601562 284.882812 91.019531 285.328125 91.460938 C 285.777344 91.902344 286.199219 92.367188 286.597656 92.851562 C 286.996094 93.339844 287.367188 93.847656 287.710938 94.371094 C 288.054688 94.898438 288.371094 95.441406 288.65625 96.003906 C 288.941406 96.5625 289.195312 97.136719 289.417969 97.726562 C 289.644531 98.3125 289.832031 98.910156 289.992188 99.519531 C 290.152344 100.128906 290.277344 100.742188 290.371094 101.363281 C 292 109.839844 292 118.316406 290.371094 126.792969 C 290.078125 128.136719 289.933594 129.496094 289.933594 130.875 C 289.929688 132.25 290.074219 133.609375 290.363281 134.957031 C 290.65625 136.300781 291.082031 137.601562 291.648438 138.855469 C 292.21875 140.105469 292.910156 141.289062 293.730469 142.394531 C 295.953125 145.519531 297.914062 148.804688 299.617188 152.242188 C 301.320312 155.679688 302.742188 159.230469 303.882812 162.894531 C 305.023438 166.554688 305.871094 170.285156 306.417969 174.082031 C 306.96875 177.878906 307.214844 181.695312 307.160156 185.527344 C 307.160156 248.945312 273.269531 268.757812 236.882812 275.777344 C 236.527344 275.84375 236.183594 275.933594 235.839844 276.039062 C 235.496094 276.144531 235.164062 276.269531 234.835938 276.414062 C 234.507812 276.558594 234.1875 276.722656 233.878906 276.902344 C 233.570312 277.085938 233.269531 277.28125 232.984375 277.496094 C 232.699219 277.710938 232.425781 277.941406 232.164062 278.1875 C 231.902344 278.433594 231.65625 278.691406 231.425781 278.964844 C 231.195312 279.242188 230.980469 279.527344 230.78125 279.824219 C 230.582031 280.121094 230.402344 280.429688 230.238281 280.75 C 230.078125 281.070312 229.929688 281.394531 229.804688 281.730469 C 229.679688 282.066406 229.574219 282.40625 229.484375 282.753906 C 229.398438 283.101562 229.332031 283.453125 229.285156 283.808594 C 229.238281 284.164062 229.210938 284.519531 229.203125 284.875 C 229.195312 285.234375 229.210938 285.59375 229.246094 285.949219 C 229.277344 286.304688 229.332031 286.65625 229.40625 287.007812 C 229.480469 287.359375 229.574219 287.703125 229.691406 288.042969 C 229.804688 288.382812 229.9375 288.714844 230.085938 289.039062 C 233.347656 296.5 234.910156 304.300781 234.773438 312.441406 L 234.773438 363.84375 C 234.773438 363.84375 237.429688 374.375 246.953125 372.8125 Z M 246.953125 372.8125 " fill-opacity="1" fill-rule="nonzero"/></svg>