<svg xmlns="http://www.w3.org/2000/svg" xmlns:xlink="http://www.w3.org/1999/xlink" width="420" zoomAndPan="magnify" viewBox="0 0 315 292.499991" height="390" preserveAspectRatio="xMidYMid meet" version="1.0"><defs><clipPath id="2d072a9087"><path d="M 0.269531 3.453125 L 310.472656 3.453125 L 310.472656 290.371094 L 0.269531 290.371094 Z M 0.269531 3.453125 " clip-rule="nonzero"/></clipPath><clipPath id="f7edf79151"><path d="M 26.230469 3.453125 L 307.808594 3.453125 L 307.808594 290.371094 L 26.230469 290.371094 Z M 26.230469 3.453125 " clip-rule="nonzero"/></clipPath><clipPath id="f76164c583"><path d="M 0.269531 0 L 302 0 L 302 281 L 0.269531 281 Z M 0.269531 0 " clip-rule="nonzero"/></clipPath><clipPath id="a2124f3039"><path d="M 23 4.117188 L 310.472656 4.117188 L 310.472656 290.371094 L 23 290.371094 Z M 23 4.117188 " clip-rule="nonzero"/></clipPath><clipPath id="bd7b714cc4"><path d="M 58.183594 76.683594 L 314.726562 76.683594 L 314.726562 281.726562 L 58.183594 281.726562 Z M 58.183594 76.683594 " clip-rule="nonzero"/></clipPath></defs><g clip-path="url(#2d072a9087)"><path fill="#000000" d="M 274.457031 227.804688 L 262.917969 210.453125 L 258.460938 210.453125 C 253.945312 216.480469 249.179688 222.289062 244.207031 227.804688 Z M 47.085938 32.605469 C 47.085938 32.871094 47.109375 33.132812 47.144531 33.390625 C 50.007812 31.441406 52.980469 29.59375 56.035156 27.851562 C 55.117188 27.230469 54.015625 26.863281 52.824219 26.863281 C 49.660156 26.863281 47.085938 29.4375 47.085938 32.605469 Z M 310.332031 238.179688 L 296.953125 238.179688 L 303.011719 290.371094 L 293.289062 290.371094 L 287.230469 238.179688 L 252.960938 238.179688 L 246.902344 290.371094 L 237.179688 290.371094 L 243.242188 238.179688 L 234.269531 238.179688 C 208.351562 263.5625 178.011719 280.671875 148.269531 280.671875 C 134.980469 280.671875 121.8125 278.082031 109.125 273.417969 L 111.097656 290.371094 L 101.375 290.371094 L 98.914062 269.164062 C 85.203125 262.789062 72.210938 254.03125 60.421875 243.550781 L 54.984375 290.371094 L 45.265625 290.371094 L 51.324219 238.179688 L 38.679688 238.179688 L 38.679688 227.804688 L 44.738281 227.804688 C 17.824219 197.359375 0.269531 157.792969 0.269531 120.265625 C 0.269531 85.269531 15.535156 58.15625 39.421875 39.082031 C 39.011719 38.230469 38.675781 37.34375 38.4375 36.425781 L 34.066406 35.460938 L 34.066406 29.75 L 38.4375 28.789062 C 38.777344 27.503906 39.285156 26.277344 39.949219 25.128906 L 37.539062 21.359375 L 41.578125 17.320312 L 45.351562 19.730469 C 46.496094 19.0625 47.722656 18.554688 49.003906 18.21875 L 49.96875 13.84375 L 55.679688 13.84375 L 56.640625 18.21875 C 57.925781 18.554688 59.152344 19.0625 60.296875 19.730469 L 64.070312 17.320312 L 68.105469 21.359375 L 67.8125 21.820312 C 69.984375 20.828125 72.191406 19.878906 74.429688 18.972656 L 74.429688 13.84375 L 89.019531 13.84375 C 100.765625 10.296875 113.15625 7.863281 125.855469 6.550781 C 125.84375 6.441406 125.824219 6.335938 125.824219 6.222656 C 125.824219 4.894531 126.90625 3.816406 128.230469 3.816406 C 129.519531 3.816406 130.566406 4.835938 130.625 6.109375 C 136.464844 5.640625 142.351562 5.402344 148.269531 5.402344 C 224.277344 5.402344 304.21875 16.890625 304.21875 92.902344 C 304.21875 127.988281 287.1875 170.683594 261.375 206.496094 L 281.546875 206.496094 L 295.71875 227.804688 L 310.332031 227.804688 Z M 35.71875 8.628906 C 37.042969 8.628906 38.125 7.550781 38.125 6.222656 C 38.125 4.894531 37.042969 3.816406 35.71875 3.816406 C 34.390625 3.816406 33.308594 4.894531 33.308594 6.222656 C 33.308594 7.550781 34.390625 8.628906 35.71875 8.628906 Z M 220.453125 6.222656 C 220.453125 4.894531 221.535156 3.816406 222.859375 3.816406 C 224.1875 3.816406 225.269531 4.894531 225.269531 6.222656 C 225.269531 7.550781 224.1875 8.628906 222.859375 8.628906 C 221.535156 8.628906 220.453125 7.550781 220.453125 6.222656 " fill-opacity="1" fill-rule="nonzero"/></g><g clip-path="url(#f7edf79151)"><path fill="#444444" d="M 216.265625 7.964844 C 217.226562 7.964844 218.007812 7.183594 218.007812 6.222656 C 218.007812 5.261719 217.226562 4.480469 216.265625 4.480469 C 215.304688 4.480469 214.523438 5.261719 214.523438 6.222656 C 214.523438 7.183594 215.304688 7.964844 216.265625 7.964844 Z M 255.664062 60.089844 L 263.769531 60.089844 L 263.769531 58.089844 L 255.664062 58.089844 Z M 252.515625 33.136719 L 241.46875 26.535156 L 241.46875 39.738281 Z M 280.125 51.367188 L 213.859375 51.367188 L 213.859375 16.75 L 280.125 16.75 Z M 267.296875 55.871094 L 261.652344 55.871094 L 261.652344 57.867188 L 267.296875 57.867188 Z M 255.664062 55.871094 L 255.664062 57.867188 L 261.308594 57.867188 L 261.308594 55.871094 Z M 267.296875 53.652344 L 255.664062 53.652344 L 255.664062 55.648438 L 267.296875 55.648438 Z M 80.972656 60.199219 L 74.195312 60.199219 L 74.195312 60.867188 L 80.972656 60.867188 Z M 84.5 58.644531 L 84.5 57.980469 L 80.1875 57.980469 L 80.1875 58.644531 Z M 78.507812 57.980469 L 74.195312 57.980469 L 74.195312 58.644531 L 78.507812 58.644531 Z M 84.5 55.761719 L 74.195312 55.761719 L 74.195312 56.425781 L 84.5 56.425781 Z M 38.46875 60.199219 L 31.695312 60.199219 L 31.695312 60.867188 L 38.46875 60.867188 Z M 41.996094 58.644531 L 41.996094 57.980469 L 37.6875 57.980469 L 37.6875 58.644531 Z M 36.007812 57.980469 L 31.695312 57.980469 L 31.695312 58.644531 L 36.007812 58.644531 Z M 41.996094 55.761719 L 31.695312 55.761719 L 31.695312 56.425781 L 41.996094 56.425781 Z M 86.945312 39.527344 L 75.097656 39.527344 L 75.097656 43.675781 L 86.945312 43.675781 Z M 86.945312 21.433594 L 75.097656 21.433594 L 75.097656 25.582031 L 86.945312 25.582031 Z M 29.125 7.964844 C 30.082031 7.964844 30.863281 7.183594 30.863281 6.222656 C 30.863281 5.261719 30.082031 4.480469 29.125 4.480469 C 28.160156 4.480469 27.382812 5.261719 27.382812 6.222656 C 27.382812 7.183594 28.160156 7.964844 29.125 7.964844 Z M 42.910156 32.605469 C 42.910156 38.074219 47.355469 42.519531 52.824219 42.519531 C 58.292969 42.519531 62.738281 38.074219 62.738281 32.605469 C 62.738281 27.140625 58.292969 22.691406 52.824219 22.691406 C 47.355469 22.691406 42.910156 27.140625 42.910156 32.605469 Z M 42.246094 32.605469 C 42.246094 26.769531 46.992188 22.023438 52.824219 22.023438 C 58.65625 22.023438 63.402344 26.769531 63.402344 32.605469 C 63.402344 38.441406 58.65625 43.183594 52.824219 43.183594 C 46.992188 43.183594 42.246094 38.441406 42.246094 32.605469 Z M 168.554688 92.332031 C 168.011719 92.332031 167.515625 92.773438 167.449219 93.316406 C 167.378906 93.859375 167.765625 94.300781 168.308594 94.300781 C 168.851562 94.300781 169.347656 93.859375 169.417969 93.316406 C 169.484375 92.773438 169.097656 92.332031 168.554688 92.332031 Z M 196.8125 92.648438 L 186.902344 92.648438 C 186.535156 92.648438 186.234375 92.949219 186.234375 93.316406 C 186.234375 93.683594 186.535156 93.980469 186.902344 93.980469 L 196.8125 93.980469 C 197.179688 93.980469 197.480469 93.683594 197.480469 93.316406 C 197.480469 92.949219 197.179688 92.648438 196.8125 92.648438 Z M 121.636719 8.628906 C 122.960938 8.628906 124.042969 7.550781 124.042969 6.222656 C 124.042969 4.894531 122.960938 3.816406 121.636719 3.816406 C 120.308594 3.816406 119.230469 4.894531 119.230469 6.222656 C 119.230469 7.550781 120.308594 8.628906 121.636719 8.628906 Z M 139.589844 53.410156 C 139.589844 54.460938 140.445312 55.316406 141.496094 55.316406 L 155.910156 55.316406 C 156.960938 55.316406 157.816406 54.460938 157.816406 53.410156 C 157.816406 52.359375 156.960938 51.507812 155.910156 51.507812 L 141.496094 51.507812 C 140.445312 51.507812 139.589844 52.359375 139.589844 53.410156 Z M 126.40625 43.730469 L 140.824219 43.730469 C 141.875 43.730469 142.730469 42.878906 142.730469 41.824219 C 142.730469 40.773438 141.875 39.921875 140.824219 39.921875 L 126.40625 39.921875 C 125.355469 39.921875 124.5 40.773438 124.5 41.824219 C 124.5 42.878906 125.355469 43.730469 126.40625 43.730469 Z M 126.40625 32.144531 L 151.386719 32.144531 C 152.4375 32.144531 153.289062 31.289062 153.289062 30.238281 C 153.289062 29.191406 152.4375 28.335938 151.386719 28.335938 L 126.40625 28.335938 C 125.355469 28.335938 124.5 29.191406 124.5 30.238281 C 124.5 31.289062 125.355469 32.144531 126.40625 32.144531 Z M 156.203125 43.730469 L 161.300781 43.730469 C 162.351562 43.730469 163.203125 42.878906 163.203125 41.824219 C 163.203125 40.773438 162.351562 39.921875 161.300781 39.921875 L 156.203125 39.921875 C 155.152344 39.921875 154.296875 40.773438 154.296875 41.824219 C 154.296875 42.878906 155.152344 43.730469 156.203125 43.730469 Z M 151.003906 43.730469 C 152.054688 43.730469 152.910156 42.878906 152.910156 41.824219 C 152.910156 40.773438 152.054688 39.921875 151.003906 39.921875 L 145.90625 39.921875 C 144.855469 39.921875 144 40.773438 144 41.824219 C 144 42.878906 144.855469 43.730469 145.90625 43.730469 Z M 126.40625 26.355469 L 131.503906 26.355469 C 132.554688 26.355469 133.410156 25.5 133.410156 24.449219 C 133.410156 23.398438 132.554688 22.542969 131.503906 22.542969 L 126.40625 22.542969 C 125.355469 22.542969 124.5 23.398438 124.5 24.449219 C 124.5 25.5 125.355469 26.355469 126.40625 26.355469 Z M 126.40625 20.5625 L 143.574219 20.5625 C 144.625 20.5625 145.480469 19.707031 145.480469 18.65625 C 145.480469 17.605469 144.625 16.75 143.574219 16.75 L 126.40625 16.75 C 125.355469 16.75 124.5 17.605469 124.5 18.65625 C 124.5 19.707031 125.355469 20.5625 126.40625 20.5625 Z M 163.484375 272.304688 L 42.324219 272.304688 C 37.335938 272.304688 33.289062 276.347656 33.289062 281.335938 C 33.289062 286.328125 37.335938 290.371094 42.324219 290.371094 L 163.484375 290.371094 C 168.476562 290.371094 172.519531 286.328125 172.519531 281.335938 C 172.519531 276.347656 168.476562 272.304688 163.484375 272.304688 Z M 303.269531 83.554688 C 303.269531 83.1875 302.96875 82.890625 302.601562 82.890625 L 269.871094 82.890625 C 269.503906 82.890625 269.207031 83.1875 269.207031 83.554688 C 269.207031 83.925781 269.503906 84.222656 269.871094 84.222656 L 302.601562 84.222656 C 302.96875 84.222656 303.269531 83.925781 303.269531 83.554688 Z M 287.890625 93.980469 L 293.5 93.980469 C 293.867188 93.980469 294.167969 93.683594 294.167969 93.316406 C 294.167969 92.949219 293.867188 92.648438 293.5 92.648438 L 287.890625 92.648438 C 287.523438 92.648438 287.222656 92.949219 287.222656 93.316406 C 287.222656 93.683594 287.523438 93.980469 287.890625 93.980469 Z M 301.085938 97.664062 C 301.085938 97.296875 300.789062 97 300.421875 97 L 287.34375 97 C 286.976562 97 286.679688 97.296875 286.679688 97.664062 C 286.679688 98.03125 286.976562 98.332031 287.34375 98.332031 L 300.421875 98.332031 C 300.789062 98.332031 301.085938 98.03125 301.085938 97.664062 Z M 286.796875 102.683594 L 293.511719 102.683594 C 293.882812 102.683594 294.175781 102.382812 294.175781 102.015625 C 294.175781 101.648438 293.882812 101.351562 293.511719 101.351562 L 286.796875 101.351562 C 286.429688 101.351562 286.132812 101.648438 286.132812 102.015625 C 286.132812 102.382812 286.429688 102.683594 286.796875 102.683594 Z M 282.863281 130.433594 C 282.496094 130.433594 282.199219 130.730469 282.199219 131.101562 C 282.199219 131.464844 282.496094 131.765625 282.863281 131.765625 L 288.472656 131.765625 C 288.839844 131.765625 289.136719 131.464844 289.136719 131.101562 C 289.136719 130.730469 288.839844 130.433594 288.472656 130.433594 Z M 296.058594 135.449219 C 296.058594 135.082031 295.757812 134.78125 295.390625 134.78125 L 282.316406 134.78125 C 281.949219 134.78125 281.648438 135.082031 281.648438 135.449219 C 281.648438 135.816406 281.949219 136.113281 282.316406 136.113281 L 295.390625 136.113281 C 295.757812 136.113281 296.058594 135.816406 296.058594 135.449219 Z M 289.148438 139.796875 C 289.148438 139.429688 288.851562 139.132812 288.484375 139.132812 L 281.769531 139.132812 C 281.402344 139.132812 281.101562 139.429688 281.101562 139.796875 C 281.101562 140.164062 281.402344 140.464844 281.769531 140.464844 L 288.484375 140.464844 C 288.851562 140.464844 289.148438 140.164062 289.148438 139.796875 Z M 274.820312 98.167969 C 274.820312 97.800781 274.523438 97.5 274.15625 97.5 L 262.941406 97.5 C 262.570312 97.5 262.273438 97.800781 262.273438 98.167969 C 262.273438 98.535156 262.570312 98.832031 262.941406 98.832031 L 274.15625 98.832031 C 274.523438 98.832031 274.820312 98.535156 274.820312 98.167969 Z M 269.203125 106.867188 C 269.203125 106.5 268.90625 106.203125 268.539062 106.203125 L 258.738281 106.203125 C 258.371094 106.203125 258.074219 106.5 258.074219 106.867188 C 258.074219 107.234375 258.371094 107.535156 258.738281 107.535156 L 268.539062 107.535156 C 268.90625 107.535156 269.203125 107.234375 269.203125 106.867188 Z M 266.863281 161.503906 C 266.863281 161.136719 266.566406 160.839844 266.195312 160.839844 L 248.550781 160.839844 C 248.183594 160.839844 247.886719 161.136719 247.886719 161.503906 C 247.886719 161.871094 248.183594 162.171875 248.550781 162.171875 L 266.195312 162.171875 C 266.566406 162.171875 266.863281 161.871094 266.863281 161.503906 Z M 216.800781 88.464844 L 168.132812 88.464844 C 166.292969 88.464844 164.617188 89.953125 164.386719 91.792969 L 163.585938 98.167969 L 218.910156 98.167969 L 219.710938 91.792969 C 219.941406 89.953125 218.640625 88.464844 216.800781 88.464844 Z M 211.222656 138.511719 C 211.222656 138.140625 210.925781 137.84375 210.558594 137.84375 L 204.617188 137.84375 C 204.253906 137.84375 203.953125 138.140625 203.953125 138.511719 C 203.953125 138.878906 204.253906 139.175781 204.617188 139.175781 L 210.558594 139.175781 C 210.925781 139.175781 211.222656 138.878906 211.222656 138.511719 Z M 196.898438 141.707031 C 196.898438 141.339844 196.601562 141.042969 196.234375 141.042969 L 190.671875 141.042969 C 190.304688 141.042969 190.003906 141.339844 190.003906 141.707031 C 190.003906 142.074219 190.304688 142.371094 190.671875 142.371094 L 196.234375 142.371094 C 196.601562 142.371094 196.898438 142.074219 196.898438 141.707031 Z M 185.386719 138.511719 C 185.386719 138.140625 185.089844 137.84375 184.722656 137.84375 L 178.78125 137.84375 C 178.414062 137.84375 178.117188 138.140625 178.117188 138.511719 C 178.117188 138.878906 178.414062 139.175781 178.78125 139.175781 L 184.722656 139.175781 C 185.089844 139.175781 185.386719 138.878906 185.386719 138.511719 Z M 169.214844 164.238281 L 164.144531 164.238281 C 163.445312 164.238281 162.804688 164.804688 162.71875 165.503906 C 162.632812 166.203125 163.125 166.769531 163.824219 166.769531 L 168.894531 166.769531 C 169.59375 166.769531 170.234375 166.203125 170.320312 165.503906 C 170.40625 164.804688 169.914062 164.238281 169.214844 164.238281 Z M 164.007812 155.570312 C 164.550781 155.570312 165.046875 155.128906 165.117188 154.585938 C 165.183594 154.042969 164.796875 153.597656 164.253906 153.597656 C 163.710938 153.597656 163.214844 154.042969 163.148438 154.585938 C 163.078125 155.128906 163.464844 155.570312 164.007812 155.570312 Z M 163.425781 141.707031 C 163.425781 142.074219 163.722656 142.371094 164.089844 142.371094 L 168.175781 142.371094 C 168.542969 142.371094 168.84375 142.074219 168.84375 141.707031 C 168.84375 141.339844 168.542969 141.042969 168.175781 141.042969 L 164.089844 141.042969 C 163.722656 141.042969 163.425781 141.339844 163.425781 141.707031 Z M 189.5625 106.867188 C 189.5625 106.5 189.265625 106.203125 188.894531 106.203125 L 176.324219 106.203125 C 175.957031 106.203125 175.65625 106.5 175.65625 106.867188 C 175.65625 107.234375 175.957031 107.535156 176.324219 107.535156 L 188.894531 107.535156 C 189.265625 107.535156 189.5625 107.234375 189.5625 106.867188 Z M 232.15625 178.902344 C 232.15625 179.269531 232.453125 179.566406 232.820312 179.566406 L 258.277344 179.566406 C 258.644531 179.566406 258.941406 179.269531 258.941406 178.902344 C 258.941406 178.535156 258.644531 178.234375 258.277344 178.234375 L 232.820312 178.234375 C 232.453125 178.234375 232.15625 178.535156 232.15625 178.902344 Z M 237.929688 132.964844 C 237.929688 133.332031 238.226562 133.628906 238.59375 133.628906 L 245.308594 133.628906 C 245.675781 133.628906 245.972656 133.332031 245.972656 132.964844 C 245.972656 132.59375 245.675781 132.296875 245.308594 132.296875 L 238.59375 132.296875 C 238.226562 132.296875 237.929688 132.59375 237.929688 132.964844 Z M 240.117188 115.566406 C 240.117188 115.933594 240.414062 116.234375 240.78125 116.234375 L 248.871094 116.234375 C 249.238281 116.234375 249.535156 115.933594 249.535156 115.566406 C 249.535156 115.199219 249.238281 114.902344 248.871094 114.902344 L 240.78125 114.902344 C 240.414062 114.902344 240.117188 115.199219 240.117188 115.566406 Z M 241.753906 102.519531 C 241.753906 102.882812 242.050781 103.183594 242.417969 103.183594 L 248.027344 103.183594 C 248.398438 103.183594 248.695312 102.882812 248.695312 102.519531 C 248.695312 102.152344 248.398438 101.851562 248.027344 101.851562 L 242.417969 101.851562 C 242.050781 101.851562 241.753906 102.152344 241.753906 102.519531 Z M 264.042969 115.566406 C 264.042969 115.199219 263.742188 114.902344 263.378906 114.902344 L 251.78125 114.902344 C 251.414062 114.902344 251.113281 115.199219 251.113281 115.566406 C 251.113281 115.933594 251.414062 116.234375 251.78125 116.234375 L 263.378906 116.234375 C 263.742188 116.234375 264.042969 115.933594 264.042969 115.566406 Z M 265.804688 129.28125 C 266.175781 129.28125 266.472656 128.984375 266.472656 128.613281 C 266.472656 128.246094 266.175781 127.949219 265.804688 127.949219 L 256.003906 127.949219 C 255.640625 127.949219 255.339844 128.246094 255.339844 128.613281 C 255.339844 128.984375 255.640625 129.28125 256.003906 129.28125 Z M 307.515625 85.777344 L 297.203125 178.78125 C 296.898438 181.527344 294.582031 183.601562 291.820312 183.601562 L 147.4375 183.601562 C 145.875 183.601562 144.445312 182.960938 143.402344 181.800781 C 143.195312 181.566406 143.019531 181.320312 142.855469 181.066406 C 141.355469 191.71875 134.171875 203.742188 134.171875 213.117188 C 134.171875 223.410156 142.019531 238.179688 142.019531 238.179688 C 142.019531 238.179688 139.234375 261.234375 110.964844 261.234375 C 100.746094 261.234375 93.53125 259.441406 89.820312 258.230469 C 87.894531 257.601562 86.476562 255.980469 86.042969 254 C 82.753906 239.082031 84.984375 217.902344 87.300781 210.453125 C 88.867188 205.417969 87.023438 179.632812 80.980469 161.25 C 77.890625 151.871094 84.875 142.222656 94.746094 142.222656 L 97.085938 134.78125 C 97.085938 134.78125 104.519531 131.1875 112.375 132.785156 C 120.230469 134.382812 123.980469 136.542969 126.910156 136.953125 L 125.011719 142.265625 C 128.25 142.546875 131.148438 144.476562 132.628906 147.417969 C 135.828125 153.769531 140.910156 164.675781 142.578125 172.875 L 152.363281 84.582031 C 152.667969 81.832031 154.980469 79.761719 157.75 79.761719 L 302.128906 79.761719 C 303.6875 79.761719 305.125 80.402344 306.164062 81.566406 C 307.207031 82.726562 307.6875 84.222656 307.515625 85.777344 Z M 172.28125 92.332031 C 171.742188 92.332031 171.246094 92.773438 171.175781 93.316406 C 171.105469 93.859375 171.492188 94.300781 172.035156 94.300781 C 172.578125 94.300781 173.074219 93.859375 173.144531 93.316406 C 173.214844 92.773438 172.828125 92.332031 172.28125 92.332031 Z M 176.011719 92.332031 C 175.46875 92.332031 174.972656 92.773438 174.902344 93.316406 C 174.835938 93.859375 175.21875 94.300781 175.765625 94.300781 C 176.308594 94.300781 176.804688 93.859375 176.871094 93.316406 C 176.9375 92.773438 176.554688 92.332031 176.011719 92.332031 Z M 73.988281 89.292969 L 66.0625 89.292969 L 66.0625 106.578125 L 73.988281 106.578125 Z M 46.179688 106.578125 L 54.105469 106.578125 L 54.105469 91.6875 L 46.179688 91.6875 Z M 34.222656 106.578125 L 26.296875 106.578125 L 26.296875 96.878906 L 34.222656 96.878906 L 34.222656 106.578125 " fill-opacity="1" fill-rule="nonzero"/></g><g clip-path="url(#f76164c583)"><path fill="#000000" d="M 52.824219 39.015625 C 56.363281 39.015625 59.230469 36.144531 59.230469 32.605469 C 59.230469 29.066406 56.363281 26.199219 52.824219 26.199219 C 49.285156 26.199219 46.417969 29.066406 46.417969 32.605469 C 46.417969 36.144531 49.285156 39.015625 52.824219 39.015625 Z M 33.976562 6.222656 C 33.976562 7.183594 34.757812 7.964844 35.71875 7.964844 C 36.679688 7.964844 37.457031 7.183594 37.457031 6.222656 C 37.457031 5.261719 36.679688 4.480469 35.71875 4.480469 C 34.757812 4.480469 33.976562 5.261719 33.976562 6.222656 Z M 38.390625 21.453125 L 40.734375 25.121094 C 39.933594 26.40625 39.335938 27.832031 38.980469 29.351562 L 34.730469 30.285156 L 34.730469 34.925781 L 38.980469 35.863281 C 39.335938 37.382812 39.933594 38.804688 40.734375 40.09375 L 38.390625 43.761719 L 41.671875 47.042969 L 45.339844 44.699219 C 46.625 45.496094 48.046875 46.09375 49.566406 46.449219 L 50.503906 50.699219 L 55.144531 50.699219 L 56.082031 46.449219 C 57.597656 46.09375 59.023438 45.496094 60.308594 44.699219 L 63.976562 47.042969 L 67.257812 43.761719 L 64.914062 40.09375 C 65.710938 38.804688 66.308594 37.382812 66.667969 35.863281 L 70.917969 34.925781 L 70.917969 30.285156 L 66.667969 29.351562 C 66.308594 27.832031 65.710938 26.40625 64.914062 25.121094 L 67.257812 21.453125 L 63.976562 18.167969 L 60.308594 20.515625 C 59.023438 19.714844 57.597656 19.117188 56.082031 18.765625 L 55.144531 14.511719 L 50.503906 14.511719 L 49.566406 18.765625 C 48.046875 19.117188 46.625 19.714844 45.339844 20.515625 L 41.671875 18.167969 Z M 75.097656 36.75 L 93.203125 36.75 L 93.203125 32.605469 L 75.097656 32.605469 Z M 75.097656 18.65625 L 93.203125 18.65625 L 93.203125 14.511719 L 75.097656 14.511719 Z M 56.164062 55.761719 L 45.863281 55.761719 L 45.863281 56.425781 L 56.164062 56.425781 Z M 56.164062 57.980469 L 51.851562 57.980469 L 51.851562 58.644531 L 56.164062 58.644531 Z M 50.171875 58.644531 L 50.171875 57.980469 L 45.863281 57.980469 L 45.863281 58.644531 Z M 52.636719 60.199219 L 45.863281 60.199219 L 45.863281 60.867188 L 52.636719 60.867188 Z M 101.175781 51.839844 L 113.21875 51.839844 L 113.21875 33.46875 L 101.175781 33.46875 Z M 101.175781 32.804688 L 113.21875 32.804688 L 113.21875 14.4375 L 101.175781 14.4375 Z M 119.898438 53.410156 C 119.898438 54.097656 120.449219 54.652344 121.132812 54.652344 L 121.25 54.652344 C 121.9375 54.652344 122.492188 54.097656 122.492188 53.410156 C 122.492188 52.726562 121.9375 52.171875 121.25 52.171875 L 121.132812 52.171875 C 120.449219 52.171875 119.898438 52.726562 119.898438 53.410156 Z M 119.898438 47.621094 C 119.898438 48.304688 120.449219 48.859375 121.132812 48.859375 L 121.25 48.859375 C 121.9375 48.859375 122.492188 48.304688 122.492188 47.621094 C 122.492188 46.933594 121.9375 46.378906 121.25 46.378906 L 121.132812 46.378906 C 120.449219 46.378906 119.898438 46.933594 119.898438 47.621094 Z M 119.898438 41.828125 C 119.898438 42.511719 120.449219 43.066406 121.132812 43.066406 L 121.25 43.066406 C 121.9375 43.066406 122.492188 42.511719 122.492188 41.828125 C 122.492188 41.140625 121.9375 40.585938 121.25 40.585938 L 121.132812 40.585938 C 120.449219 40.585938 119.898438 41.140625 119.898438 41.828125 Z M 119.898438 36.035156 C 119.898438 36.71875 120.449219 37.273438 121.132812 37.273438 L 121.25 37.273438 C 121.9375 37.273438 122.492188 36.71875 122.492188 36.035156 C 122.492188 35.351562 121.9375 34.792969 121.25 34.792969 L 121.132812 34.792969 C 120.449219 34.792969 119.898438 35.351562 119.898438 36.035156 Z M 119.898438 30.238281 C 119.898438 30.925781 120.449219 31.480469 121.132812 31.480469 L 121.25 31.480469 C 121.9375 31.480469 122.492188 30.925781 122.492188 30.238281 C 122.492188 29.554688 121.9375 29.003906 121.25 29.003906 L 121.132812 29.003906 C 120.449219 29.003906 119.898438 29.554688 119.898438 30.238281 Z M 119.898438 24.449219 C 119.898438 25.132812 120.449219 25.6875 121.132812 25.6875 L 121.25 25.6875 C 121.9375 25.6875 122.492188 25.132812 122.492188 24.449219 C 122.492188 23.765625 121.9375 23.207031 121.25 23.207031 L 121.132812 23.207031 C 120.449219 23.207031 119.898438 23.765625 119.898438 24.449219 Z M 119.898438 18.65625 C 119.898438 19.339844 120.449219 19.894531 121.132812 19.894531 L 121.25 19.894531 C 121.9375 19.894531 122.492188 19.339844 122.492188 18.65625 C 122.492188 17.972656 121.9375 17.417969 121.25 17.417969 L 121.132812 17.417969 C 120.449219 17.417969 119.898438 17.972656 119.898438 18.65625 Z M 119.898438 12.863281 C 119.898438 13.546875 120.449219 14.105469 121.132812 14.105469 L 121.25 14.105469 C 121.9375 14.105469 122.492188 13.546875 122.492188 12.863281 C 122.492188 12.179688 121.9375 11.625 121.25 11.625 L 121.132812 11.625 C 120.449219 11.625 119.898438 12.179688 119.898438 12.863281 Z M 119.898438 6.222656 C 119.898438 7.183594 120.675781 7.964844 121.636719 7.964844 C 122.597656 7.964844 123.378906 7.183594 123.378906 6.222656 C 123.378906 5.261719 122.597656 4.480469 121.636719 4.480469 C 120.675781 4.480469 119.898438 5.261719 119.898438 6.222656 Z M 125.164062 53.410156 C 125.164062 54.097656 125.722656 54.652344 126.40625 54.652344 L 136.917969 54.652344 C 137.601562 54.652344 138.160156 54.097656 138.160156 53.410156 C 138.160156 52.726562 137.601562 52.171875 136.917969 52.171875 L 126.40625 52.171875 C 125.722656 52.171875 125.164062 52.726562 125.164062 53.410156 Z M 125.164062 47.621094 C 125.164062 48.304688 125.722656 48.859375 126.40625 48.859375 L 148.898438 48.859375 C 149.585938 48.859375 150.140625 48.304688 150.140625 47.621094 C 150.140625 46.933594 149.585938 46.378906 148.898438 46.378906 L 126.40625 46.378906 C 125.722656 46.378906 125.164062 46.933594 125.164062 47.621094 Z M 125.164062 41.828125 C 125.164062 42.511719 125.722656 43.066406 126.40625 43.066406 L 140.824219 43.066406 C 141.507812 43.066406 142.0625 42.511719 142.0625 41.828125 C 142.0625 41.140625 141.507812 40.585938 140.824219 40.585938 L 126.40625 40.585938 C 125.722656 40.585938 125.164062 41.140625 125.164062 41.828125 Z M 125.164062 36.035156 C 125.164062 36.71875 125.722656 37.273438 126.40625 37.273438 L 145.4375 37.273438 C 146.125 37.273438 146.675781 36.71875 146.675781 36.035156 C 146.675781 35.351562 146.125 34.792969 145.4375 34.792969 L 126.40625 34.792969 C 125.722656 34.792969 125.164062 35.351562 125.164062 36.035156 Z M 125.164062 30.238281 C 125.164062 30.925781 125.722656 31.480469 126.40625 31.480469 L 151.386719 31.480469 C 152.070312 31.480469 152.625 30.925781 152.625 30.238281 C 152.625 29.554688 152.070312 29.003906 151.386719 29.003906 L 126.40625 29.003906 C 125.722656 29.003906 125.164062 29.554688 125.164062 30.238281 Z M 125.164062 24.449219 C 125.164062 25.132812 125.722656 25.6875 126.40625 25.6875 L 131.503906 25.6875 C 132.1875 25.6875 132.746094 25.132812 132.746094 24.449219 C 132.746094 23.765625 132.1875 23.207031 131.503906 23.207031 L 126.40625 23.207031 C 125.722656 23.207031 125.164062 23.765625 125.164062 24.449219 Z M 125.164062 18.65625 C 125.164062 19.339844 125.722656 19.894531 126.40625 19.894531 L 143.574219 19.894531 C 144.257812 19.894531 144.816406 19.339844 144.816406 18.65625 C 144.816406 17.972656 144.257812 17.417969 143.574219 17.417969 L 126.40625 17.417969 C 125.722656 17.417969 125.164062 17.972656 125.164062 18.65625 Z M 125.164062 12.863281 C 125.164062 13.546875 125.722656 14.105469 126.40625 14.105469 L 134.289062 14.105469 C 134.972656 14.105469 135.527344 13.546875 135.527344 12.863281 C 135.527344 12.179688 134.972656 11.625 134.289062 11.625 L 126.40625 11.625 C 125.722656 11.625 125.164062 12.179688 125.164062 12.863281 Z M 126.488281 6.222656 C 126.488281 7.183594 127.269531 7.964844 128.230469 7.964844 C 129.191406 7.964844 129.972656 7.183594 129.972656 6.222656 C 129.972656 5.261719 129.191406 4.480469 128.230469 4.480469 C 127.269531 4.480469 126.488281 5.261719 126.488281 6.222656 Z M 162.628906 23.207031 L 137.648438 23.207031 C 136.964844 23.207031 136.410156 23.765625 136.410156 24.449219 C 136.410156 25.132812 136.964844 25.6875 137.648438 25.6875 L 162.628906 25.6875 C 163.3125 25.6875 163.871094 25.132812 163.871094 24.449219 C 163.871094 23.765625 163.3125 23.207031 162.628906 23.207031 Z M 163.160156 30.238281 C 163.160156 29.554688 162.605469 29.003906 161.921875 29.003906 L 156.824219 29.003906 C 156.140625 29.003906 155.582031 29.554688 155.582031 30.238281 C 155.582031 30.925781 156.140625 31.480469 156.824219 31.480469 L 161.921875 31.480469 C 162.605469 31.480469 163.160156 30.925781 163.160156 30.238281 Z M 162.539062 41.828125 C 162.539062 41.140625 161.984375 40.585938 161.300781 40.585938 L 156.203125 40.585938 C 155.519531 40.585938 154.960938 41.140625 154.960938 41.828125 C 154.960938 42.511719 155.519531 43.066406 156.203125 43.066406 L 161.300781 43.066406 C 161.984375 43.066406 162.539062 42.511719 162.539062 41.828125 Z M 152.246094 41.828125 C 152.246094 41.140625 151.691406 40.585938 151.003906 40.585938 L 145.90625 40.585938 C 145.222656 40.585938 144.667969 41.140625 144.667969 41.828125 C 144.667969 42.511719 145.222656 43.066406 145.90625 43.066406 L 151.003906 43.066406 C 151.691406 43.066406 152.246094 42.511719 152.246094 41.828125 Z M 157.152344 53.410156 C 157.152344 52.726562 156.597656 52.171875 155.910156 52.171875 L 141.496094 52.171875 C 140.808594 52.171875 140.253906 52.726562 140.253906 53.410156 C 140.253906 54.097656 140.808594 54.652344 141.496094 54.652344 L 155.910156 54.652344 C 156.597656 54.652344 157.152344 54.097656 157.152344 53.410156 Z M 191.273438 51.839844 L 207.03125 51.839844 L 207.03125 33.46875 L 191.273438 33.46875 Z M 191.273438 32.804688 L 207.03125 32.804688 L 207.03125 14.4375 L 191.273438 14.4375 Z M 214.523438 50.699219 L 279.457031 50.699219 L 279.457031 17.417969 L 214.523438 17.417969 Z M 221.117188 6.222656 C 221.117188 7.183594 221.898438 7.964844 222.859375 7.964844 C 223.820312 7.964844 224.601562 7.183594 224.601562 6.222656 C 224.601562 5.261719 223.820312 4.480469 222.859375 4.480469 C 221.898438 4.480469 221.117188 5.261719 221.117188 6.222656 Z M 266.632812 54.316406 L 256.328125 54.316406 L 256.328125 54.984375 L 266.632812 54.984375 Z M 266.632812 56.535156 L 262.320312 56.535156 L 262.320312 57.203125 L 266.632812 57.203125 Z M 260.640625 57.203125 L 260.640625 56.535156 L 256.328125 56.535156 L 256.328125 57.203125 Z M 263.105469 58.757812 L 256.328125 58.757812 L 256.328125 59.421875 L 263.105469 59.421875 Z M 245.332031 54.316406 L 235.027344 54.316406 L 235.027344 54.984375 L 245.332031 54.984375 Z M 245.332031 56.535156 L 241.019531 56.535156 L 241.019531 57.203125 L 245.332031 57.203125 Z M 239.339844 57.203125 L 239.339844 56.535156 L 235.027344 56.535156 L 235.027344 57.203125 Z M 241.804688 58.757812 L 235.027344 58.757812 L 235.027344 59.421875 L 241.804688 59.421875 Z M 23.121094 65.28125 L 23.121094 3.453125 C 23.121094 1.613281 24.609375 0.125 26.449219 0.125 L 97.847656 0.125 C 99.683594 0.125 101.175781 1.613281 101.175781 3.453125 L 101.175781 13.769531 L 113.21875 13.769531 L 113.21875 3.453125 C 113.21875 1.613281 114.707031 0.125 116.546875 0.125 L 187.945312 0.125 C 189.78125 0.125 191.273438 1.613281 191.273438 3.453125 L 191.273438 13.769531 L 207.03125 13.769531 L 207.03125 3.453125 C 207.03125 1.613281 208.523438 0.125 210.359375 0.125 L 281.757812 0.125 C 283.597656 0.125 285.085938 1.613281 285.085938 3.453125 L 285.085938 51.839844 L 293.6875 51.839844 C 293.820312 52.058594 293.945312 52.285156 294.078125 52.503906 L 285.085938 52.503906 L 285.085938 65.28125 C 285.085938 67.121094 283.597656 68.609375 281.757812 68.609375 L 210.359375 68.609375 C 208.523438 68.609375 207.03125 67.121094 207.03125 65.28125 L 207.03125 52.503906 L 191.273438 52.503906 L 191.273438 58.355469 C 191.273438 60.195312 189.78125 61.683594 187.945312 61.683594 L 116.546875 61.683594 C 114.707031 61.683594 113.21875 60.195312 113.21875 58.355469 L 113.21875 52.503906 L 101.175781 52.503906 L 101.175781 65.28125 C 101.175781 67.121094 99.683594 68.609375 97.847656 68.609375 L 26.449219 68.609375 C 24.609375 68.609375 23.121094 67.121094 23.121094 65.28125 Z M 252.296875 82.890625 C 251.929688 82.890625 251.632812 83.1875 251.632812 83.554688 C 251.632812 83.925781 251.929688 84.222656 252.296875 84.222656 L 265.742188 84.222656 C 266.113281 84.222656 266.410156 83.925781 266.410156 83.554688 C 266.410156 83.1875 266.113281 82.890625 265.742188 82.890625 Z M 266.863281 161.503906 C 266.863281 161.136719 266.566406 160.839844 266.195312 160.839844 L 248.550781 160.839844 C 248.183594 160.839844 247.886719 161.136719 247.886719 161.503906 C 247.886719 161.871094 248.183594 162.171875 248.550781 162.171875 L 266.195312 162.171875 C 266.566406 162.171875 266.863281 161.871094 266.863281 161.503906 Z M 259.488281 174.554688 C 259.488281 174.183594 259.191406 173.886719 258.820312 173.886719 L 233.367188 173.886719 C 233 173.886719 232.703125 174.183594 232.703125 174.554688 C 232.703125 174.921875 233 175.21875 233.367188 175.21875 L 258.820312 175.21875 C 259.191406 175.21875 259.488281 174.921875 259.488281 174.554688 Z M 258.941406 178.902344 C 258.941406 178.535156 258.644531 178.234375 258.277344 178.234375 L 232.820312 178.234375 C 232.453125 178.234375 232.15625 178.535156 232.15625 178.902344 C 232.15625 179.269531 232.453125 179.566406 232.820312 179.566406 L 258.277344 179.566406 C 258.644531 179.566406 258.941406 179.269531 258.941406 178.902344 Z M 233.792969 165.851562 C 233.792969 166.222656 234.09375 166.519531 234.460938 166.519531 L 255.03125 166.519531 C 255.398438 166.519531 255.695312 166.222656 255.695312 165.851562 C 255.695312 165.484375 255.398438 165.1875 255.03125 165.1875 L 234.460938 165.1875 C 234.09375 165.1875 233.792969 165.484375 233.792969 165.851562 Z M 234.34375 161.503906 C 234.34375 161.871094 234.640625 162.171875 235.007812 162.171875 L 243.832031 162.171875 C 244.199219 162.171875 244.496094 161.871094 244.496094 161.503906 C 244.496094 161.136719 244.199219 160.839844 243.832031 160.839844 L 235.007812 160.839844 C 234.640625 160.839844 234.34375 161.136719 234.34375 161.503906 Z M 234.890625 157.15625 C 234.890625 157.523438 235.183594 157.824219 235.554688 157.824219 L 261.007812 157.824219 C 261.378906 157.824219 261.675781 157.523438 261.675781 157.15625 C 261.675781 156.789062 261.378906 156.492188 261.007812 156.492188 L 235.554688 156.492188 C 235.183594 156.492188 234.890625 156.789062 234.890625 157.15625 Z M 229.988281 157.15625 C 229.988281 156.789062 229.691406 156.492188 229.324219 156.492188 L 224.886719 156.492188 C 224.519531 156.492188 224.21875 156.789062 224.21875 157.15625 C 224.21875 157.523438 224.519531 157.824219 224.886719 157.824219 L 229.324219 157.824219 C 229.691406 157.824219 229.988281 157.523438 229.988281 157.15625 Z M 229.441406 161.503906 C 229.441406 161.136719 229.144531 160.839844 228.777344 160.839844 L 224.339844 160.839844 C 223.96875 160.839844 223.675781 161.136719 223.675781 161.503906 C 223.675781 161.871094 223.96875 162.171875 224.339844 162.171875 L 228.777344 162.171875 C 229.144531 162.171875 229.441406 161.871094 229.441406 161.503906 Z M 228.894531 165.851562 C 228.894531 165.484375 228.597656 165.1875 228.230469 165.1875 L 223.789062 165.1875 C 223.425781 165.1875 223.125 165.484375 223.125 165.851562 C 223.125 166.222656 223.425781 166.519531 223.789062 166.519531 L 228.230469 166.519531 C 228.597656 166.519531 228.894531 166.222656 228.894531 165.851562 Z M 227.804688 174.554688 C 227.804688 174.183594 227.503906 173.886719 227.136719 173.886719 L 222.699219 173.886719 C 222.332031 173.886719 222.03125 174.183594 222.03125 174.554688 C 222.03125 174.921875 222.332031 175.21875 222.699219 175.21875 L 227.136719 175.21875 C 227.503906 175.21875 227.804688 174.921875 227.804688 174.554688 Z M 227.257812 178.902344 C 227.257812 178.535156 226.957031 178.234375 226.589844 178.234375 L 222.152344 178.234375 C 221.785156 178.234375 221.488281 178.535156 221.488281 178.902344 C 221.488281 179.269531 221.785156 179.566406 222.152344 179.566406 L 226.589844 179.566406 C 226.957031 179.566406 227.257812 179.269531 227.257812 178.902344 Z M 275.667969 154.480469 L 272.003906 183.601562 L 264.015625 183.601562 C 264.082031 183.5 264.128906 183.382812 264.128906 183.253906 C 264.128906 182.882812 263.832031 182.585938 263.464844 182.585938 L 245.816406 182.585938 C 245.449219 182.585938 245.152344 182.882812 245.152344 183.253906 C 245.152344 183.382812 245.199219 183.5 245.265625 183.601562 L 241.648438 183.601562 C 241.714844 183.5 241.765625 183.382812 241.765625 183.253906 C 241.765625 182.882812 241.464844 182.585938 241.097656 182.585938 L 232.273438 182.585938 C 231.90625 182.585938 231.605469 182.882812 231.605469 183.253906 C 231.605469 183.382812 231.65625 183.5 231.722656 183.601562 L 226.59375 183.601562 C 226.660156 183.5 226.707031 183.382812 226.707031 183.253906 C 226.707031 182.882812 226.410156 182.585938 226.042969 182.585938 L 221.605469 182.585938 C 221.238281 182.585938 220.941406 182.882812 220.941406 183.253906 C 220.941406 183.382812 220.988281 183.5 221.054688 183.601562 L 216.679688 183.601562 L 220.339844 154.480469 C 220.570312 152.640625 222.25 151.152344 224.085938 151.152344 L 272.757812 151.152344 C 274.59375 151.152344 275.898438 152.640625 275.667969 154.480469 Z M 181.167969 164.238281 L 176.097656 164.238281 C 175.398438 164.238281 174.761719 164.804688 174.675781 165.503906 C 174.589844 166.203125 175.082031 166.769531 175.78125 166.769531 L 180.851562 166.769531 C 181.550781 166.769531 182.1875 166.203125 182.277344 165.503906 C 182.363281 164.804688 181.871094 164.238281 181.167969 164.238281 Z M 169.214844 164.238281 L 164.144531 164.238281 C 163.445312 164.238281 162.804688 164.804688 162.71875 165.503906 C 162.632812 166.203125 163.125 166.769531 163.824219 166.769531 L 168.894531 166.769531 C 169.59375 166.769531 170.234375 166.203125 170.320312 165.503906 C 170.40625 164.804688 169.914062 164.238281 169.214844 164.238281 Z M 160.527344 153.597656 C 159.984375 153.597656 159.484375 154.042969 159.417969 154.585938 C 159.351562 155.128906 159.734375 155.570312 160.277344 155.570312 C 160.824219 155.570312 161.320312 155.128906 161.386719 154.585938 C 161.457031 154.042969 161.070312 153.597656 160.527344 153.597656 Z M 164.007812 155.570312 C 164.550781 155.570312 165.046875 155.128906 165.117188 154.585938 C 165.183594 154.042969 164.796875 153.597656 164.253906 153.597656 C 163.710938 153.597656 163.214844 154.042969 163.148438 154.585938 C 163.078125 155.128906 163.464844 155.570312 164.007812 155.570312 Z M 167.734375 155.570312 C 168.277344 155.570312 168.773438 155.128906 168.84375 154.585938 C 168.910156 154.042969 168.527344 153.597656 167.980469 153.597656 C 167.4375 153.597656 166.945312 154.042969 166.875 154.585938 C 166.804688 155.128906 167.191406 155.570312 167.734375 155.570312 Z M 178.101562 159.710938 L 168.179688 159.710938 C 167.816406 159.710938 167.515625 160.007812 167.515625 160.375 C 167.515625 160.746094 167.816406 161.042969 168.179688 161.042969 L 178.101562 161.042969 C 178.46875 161.042969 178.765625 160.746094 178.765625 160.375 C 178.765625 160.007812 178.46875 159.710938 178.101562 159.710938 Z M 188.175781 151.144531 C 190.015625 151.144531 191.320312 152.636719 191.089844 154.472656 L 189.695312 165.570312 C 189.464844 167.40625 187.785156 168.898438 185.949219 168.898438 L 157.679688 168.898438 C 155.84375 168.898438 154.539062 167.40625 154.773438 165.570312 L 156.164062 154.472656 C 156.398438 152.636719 158.074219 151.144531 159.914062 151.144531 Z M 173.144531 93.316406 C 173.214844 92.773438 172.828125 92.332031 172.28125 92.332031 C 171.742188 92.332031 171.246094 92.773438 171.175781 93.316406 C 171.105469 93.859375 171.492188 94.300781 172.035156 94.300781 C 172.578125 94.300781 173.074219 93.859375 173.144531 93.316406 Z M 208.285156 141.707031 C 208.285156 141.339844 207.988281 141.042969 207.621094 141.042969 L 204.21875 141.042969 C 203.847656 141.042969 203.554688 141.339844 203.554688 141.707031 C 203.554688 142.074219 203.847656 142.371094 204.21875 142.371094 L 207.621094 142.371094 C 207.988281 142.371094 208.285156 142.074219 208.285156 141.707031 Z M 203.40625 107.535156 C 203.773438 107.535156 204.074219 107.234375 204.074219 106.867188 C 204.074219 106.5 203.773438 106.203125 203.40625 106.203125 L 193.496094 106.203125 C 193.132812 106.203125 192.832031 106.5 192.832031 106.867188 C 192.832031 107.234375 193.132812 107.535156 193.496094 107.535156 Z M 201.476562 112.695312 L 177.367188 112.695312 C 176.386719 112.695312 175.492188 113.492188 175.367188 114.472656 L 174.636719 120.269531 C 174.515625 121.25 175.210938 122.046875 176.191406 122.046875 L 200.300781 122.046875 C 201.28125 122.046875 202.175781 121.25 202.300781 120.269531 L 203.027344 114.472656 C 203.152344 113.492188 202.457031 112.695312 201.476562 112.695312 Z M 191.074219 139.175781 L 194.476562 139.175781 C 194.84375 139.175781 195.140625 138.878906 195.140625 138.511719 C 195.140625 138.140625 194.84375 137.84375 194.476562 137.84375 L 191.074219 137.84375 C 190.703125 137.84375 190.410156 138.140625 190.410156 138.511719 C 190.410156 138.878906 190.703125 139.175781 191.074219 139.175781 Z M 196.898438 141.707031 C 196.898438 141.339844 196.601562 141.042969 196.234375 141.042969 L 190.671875 141.042969 C 190.304688 141.042969 190.003906 141.339844 190.003906 141.707031 C 190.003906 142.074219 190.304688 142.371094 190.671875 142.371094 L 196.234375 142.371094 C 196.601562 142.371094 196.898438 142.074219 196.898438 141.707031 Z M 185.386719 138.511719 C 185.386719 138.140625 185.089844 137.84375 184.722656 137.84375 L 178.78125 137.84375 C 178.414062 137.84375 178.117188 138.140625 178.117188 138.511719 C 178.117188 138.878906 178.414062 139.175781 178.78125 139.175781 L 184.722656 139.175781 C 185.089844 139.175781 185.386719 138.878906 185.386719 138.511719 Z M 182.449219 141.707031 C 182.449219 141.339844 182.148438 141.042969 181.785156 141.042969 L 178.378906 141.042969 C 178.011719 141.042969 177.714844 141.339844 177.714844 141.707031 C 177.714844 142.074219 178.011719 142.371094 178.378906 142.371094 L 181.785156 142.371094 C 182.148438 142.371094 182.449219 142.074219 182.449219 141.707031 Z M 171.960938 138.511719 C 171.960938 138.140625 171.664062 137.84375 171.292969 137.84375 L 164.492188 137.84375 C 164.125 137.84375 163.824219 138.140625 163.824219 138.511719 C 163.824219 138.878906 164.125 139.175781 164.492188 139.175781 L 171.292969 139.175781 C 171.664062 139.175781 171.960938 138.878906 171.960938 138.511719 Z M 168.84375 141.707031 C 168.84375 141.339844 168.542969 141.042969 168.175781 141.042969 L 164.089844 141.042969 C 163.722656 141.042969 163.425781 141.339844 163.425781 141.707031 C 163.425781 142.074219 163.722656 142.371094 164.089844 142.371094 L 168.175781 142.371094 C 168.542969 142.371094 168.84375 142.074219 168.84375 141.707031 Z M 175.65625 106.867188 C 175.65625 107.234375 175.957031 107.535156 176.324219 107.535156 L 188.894531 107.535156 C 189.265625 107.535156 189.5625 107.234375 189.5625 106.867188 C 189.5625 106.5 189.265625 106.203125 188.894531 106.203125 L 176.324219 106.203125 C 175.957031 106.203125 175.65625 106.5 175.65625 106.867188 Z M 203.953125 138.511719 C 203.953125 138.878906 204.253906 139.175781 204.617188 139.175781 L 210.558594 139.175781 C 210.925781 139.175781 211.222656 138.878906 211.222656 138.511719 C 211.222656 138.140625 210.925781 137.84375 210.558594 137.84375 L 204.617188 137.84375 C 204.253906 137.84375 203.953125 138.140625 203.953125 138.511719 Z M 209.535156 146.277344 L 160.867188 146.277344 C 159.027344 146.277344 157.726562 144.789062 157.957031 142.949219 L 163.585938 98.167969 L 218.910156 98.167969 L 219.710938 91.792969 L 213.28125 142.949219 C 213.050781 144.789062 211.375 146.277344 209.535156 146.277344 Z M 284.0625 178.882812 L 277.347656 178.882812 C 276.980469 178.882812 276.679688 179.183594 276.679688 179.550781 C 276.679688 179.917969 276.980469 180.214844 277.347656 180.214844 L 284.0625 180.214844 C 284.429688 180.214844 284.726562 179.917969 284.726562 179.550781 C 284.726562 179.183594 284.429688 178.882812 284.0625 178.882812 Z M 287.34375 174.53125 L 277.894531 174.53125 C 277.527344 174.53125 277.230469 174.832031 277.230469 175.199219 C 277.230469 175.566406 277.527344 175.863281 277.894531 175.863281 L 287.34375 175.863281 C 287.714844 175.863281 288.011719 175.566406 288.011719 175.199219 C 288.011719 174.832031 287.714844 174.53125 287.34375 174.53125 Z M 278.441406 171.515625 L 284.050781 171.515625 C 284.417969 171.515625 284.714844 171.21875 284.714844 170.851562 C 284.714844 170.484375 284.417969 170.183594 284.050781 170.183594 L 278.441406 170.183594 C 278.070312 170.183594 277.773438 170.484375 277.773438 170.851562 C 277.773438 171.21875 278.070312 171.515625 278.441406 171.515625 Z M 290.601562 121.054688 L 283.886719 121.054688 C 283.515625 121.054688 283.21875 121.351562 283.21875 121.71875 C 283.21875 122.089844 283.515625 122.386719 283.886719 122.386719 L 290.601562 122.386719 C 290.964844 122.386719 291.265625 122.089844 291.265625 121.71875 C 291.265625 121.351562 290.964844 121.054688 290.601562 121.054688 Z M 293.882812 116.707031 L 284.433594 116.707031 C 284.0625 116.707031 283.765625 117.003906 283.765625 117.371094 C 283.765625 117.738281 284.0625 118.039062 284.433594 118.039062 L 293.882812 118.039062 C 294.25 118.039062 294.546875 117.738281 294.546875 117.371094 C 294.546875 117.003906 294.25 116.707031 293.882812 116.707031 Z M 284.976562 112.355469 C 284.609375 112.355469 284.3125 112.65625 284.3125 113.019531 C 284.3125 113.390625 284.609375 113.6875 284.976562 113.6875 L 290.585938 113.6875 C 290.957031 113.6875 291.253906 113.390625 291.253906 113.019531 C 291.253906 112.65625 290.957031 112.355469 290.585938 112.355469 Z M 274.820312 98.167969 C 274.820312 97.800781 274.523438 97.5 274.15625 97.5 L 262.941406 97.5 C 262.570312 97.5 262.273438 97.800781 262.273438 98.167969 C 262.273438 98.535156 262.570312 98.832031 262.941406 98.832031 L 274.15625 98.832031 C 274.523438 98.832031 274.820312 98.535156 274.820312 98.167969 Z M 269.203125 106.867188 C 269.203125 106.5 268.90625 106.203125 268.539062 106.203125 L 258.738281 106.203125 C 258.371094 106.203125 258.074219 106.5 258.074219 106.867188 C 258.074219 107.234375 258.371094 107.535156 258.738281 107.535156 L 268.539062 107.535156 C 268.90625 107.535156 269.203125 107.234375 269.203125 106.867188 Z M 266.472656 128.613281 C 266.472656 128.246094 266.175781 127.949219 265.804688 127.949219 L 256.003906 127.949219 C 255.640625 127.949219 255.339844 128.246094 255.339844 128.613281 C 255.339844 128.984375 255.640625 129.28125 256.003906 129.28125 L 265.804688 129.28125 C 266.175781 129.28125 266.472656 128.984375 266.472656 128.613281 Z M 261.605469 132.964844 C 261.605469 132.59375 261.308594 132.296875 260.941406 132.296875 L 249.097656 132.296875 C 248.730469 132.296875 248.433594 132.59375 248.433594 132.964844 C 248.433594 133.332031 248.730469 133.628906 249.097656 133.628906 L 260.941406 133.628906 C 261.308594 133.628906 261.605469 133.332031 261.605469 132.964844 Z M 254.894531 137.3125 C 254.894531 136.945312 254.597656 136.648438 254.230469 136.648438 L 238.046875 136.648438 C 237.679688 136.648438 237.382812 136.945312 237.382812 137.3125 C 237.382812 137.683594 237.679688 137.976562 238.046875 137.976562 L 254.230469 137.976562 C 254.597656 137.976562 254.894531 137.683594 254.894531 137.3125 Z M 237.402344 98.167969 C 237.402344 97.800781 237.105469 97.5 236.734375 97.5 L 232.300781 97.5 C 231.933594 97.5 231.632812 97.800781 231.632812 98.167969 C 231.632812 98.535156 231.933594 98.832031 232.300781 98.832031 L 236.734375 98.832031 C 237.105469 98.832031 237.402344 98.535156 237.402344 98.167969 Z M 236.855469 102.519531 C 236.855469 102.152344 236.558594 101.851562 236.1875 101.851562 L 231.753906 101.851562 C 231.382812 101.851562 231.085938 102.152344 231.085938 102.519531 C 231.085938 102.882812 231.382812 103.183594 231.753906 103.183594 L 236.1875 103.183594 C 236.558594 103.183594 236.855469 102.882812 236.855469 102.519531 Z M 236.308594 106.867188 C 236.308594 106.5 236.011719 106.203125 235.644531 106.203125 L 231.207031 106.203125 C 230.835938 106.203125 230.542969 106.5 230.542969 106.867188 C 230.542969 107.234375 230.835938 107.535156 231.207031 107.535156 L 235.644531 107.535156 C 236.011719 107.535156 236.308594 107.234375 236.308594 106.867188 Z M 235.761719 111.214844 C 235.761719 110.851562 235.464844 110.550781 235.097656 110.550781 L 230.65625 110.550781 C 230.292969 110.550781 229.992188 110.851562 229.992188 111.214844 C 229.992188 111.582031 230.292969 111.882812 230.65625 111.882812 L 235.097656 111.882812 C 235.464844 111.882812 235.761719 111.582031 235.761719 111.214844 Z M 235.214844 115.566406 C 235.214844 115.199219 234.917969 114.902344 234.550781 114.902344 L 230.113281 114.902344 C 229.746094 114.902344 229.445312 115.199219 229.445312 115.566406 C 229.445312 115.933594 229.746094 116.234375 230.113281 116.234375 L 234.550781 116.234375 C 234.917969 116.234375 235.214844 115.933594 235.214844 115.566406 Z M 234.121094 124.265625 C 234.121094 123.898438 233.824219 123.601562 233.457031 123.601562 L 229.019531 123.601562 C 228.652344 123.601562 228.355469 123.898438 228.355469 124.265625 C 228.355469 124.632812 228.652344 124.929688 229.019531 124.929688 L 233.457031 124.929688 C 233.824219 124.929688 234.121094 124.632812 234.121094 124.265625 Z M 233.574219 128.613281 C 233.574219 128.246094 233.277344 127.949219 232.910156 127.949219 L 228.472656 127.949219 C 228.105469 127.949219 227.804688 128.246094 227.804688 128.613281 C 227.804688 128.984375 228.105469 129.28125 228.472656 129.28125 L 232.910156 129.28125 C 233.277344 129.28125 233.574219 128.984375 233.574219 128.613281 Z M 233.03125 132.964844 C 233.03125 132.59375 232.730469 132.296875 232.363281 132.296875 L 227.925781 132.296875 C 227.558594 132.296875 227.257812 132.59375 227.257812 132.964844 C 227.257812 133.332031 227.558594 133.628906 227.925781 133.628906 L 232.363281 133.628906 C 232.730469 133.628906 233.03125 133.332031 233.03125 132.964844 Z M 232.484375 137.3125 C 232.484375 136.945312 232.183594 136.648438 231.816406 136.648438 L 227.378906 136.648438 C 227.011719 136.648438 226.714844 136.945312 226.714844 137.3125 C 226.714844 137.683594 227.011719 137.976562 227.378906 137.976562 L 231.816406 137.976562 C 232.183594 137.976562 232.484375 137.683594 232.484375 137.3125 Z M 237.929688 132.964844 C 237.929688 133.332031 238.226562 133.628906 238.59375 133.628906 L 245.308594 133.628906 C 245.675781 133.628906 245.972656 133.332031 245.972656 132.964844 C 245.972656 132.59375 245.675781 132.296875 245.308594 132.296875 L 238.59375 132.296875 C 238.226562 132.296875 237.929688 132.59375 237.929688 132.964844 Z M 238.472656 128.613281 C 238.472656 128.984375 238.773438 129.28125 239.140625 129.28125 L 252.21875 129.28125 C 252.582031 129.28125 252.882812 128.984375 252.882812 128.613281 C 252.882812 128.246094 252.582031 127.949219 252.21875 127.949219 L 239.140625 127.949219 C 238.773438 127.949219 238.472656 128.246094 238.472656 128.613281 Z M 239.019531 124.265625 C 239.019531 124.632812 239.320312 124.929688 239.6875 124.929688 L 245.296875 124.929688 C 245.664062 124.929688 245.960938 124.632812 245.960938 124.265625 C 245.960938 123.898438 245.664062 123.601562 245.296875 123.601562 L 239.6875 123.601562 C 239.320312 123.601562 239.019531 123.898438 239.019531 124.265625 Z M 240.117188 115.566406 C 240.117188 115.933594 240.414062 116.234375 240.78125 116.234375 L 248.871094 116.234375 C 249.238281 116.234375 249.535156 115.933594 249.535156 115.566406 C 249.535156 115.199219 249.238281 114.902344 248.871094 114.902344 L 240.78125 114.902344 C 240.414062 114.902344 240.117188 115.199219 240.117188 115.566406 Z M 240.660156 111.214844 C 240.660156 111.582031 240.960938 111.882812 241.328125 111.882812 L 248.039062 111.882812 C 248.410156 111.882812 248.707031 111.582031 248.707031 111.214844 C 248.707031 110.851562 248.410156 110.550781 248.039062 110.550781 L 241.328125 110.550781 C 240.960938 110.550781 240.660156 110.851562 240.660156 111.214844 Z M 241.207031 106.867188 C 241.207031 107.234375 241.507812 107.535156 241.875 107.535156 L 254.949219 107.535156 C 255.316406 107.535156 255.617188 107.234375 255.617188 106.867188 C 255.617188 106.5 255.316406 106.203125 254.949219 106.203125 L 241.875 106.203125 C 241.507812 106.203125 241.207031 106.5 241.207031 106.867188 Z M 241.753906 102.519531 C 241.753906 102.882812 242.050781 103.183594 242.417969 103.183594 L 248.027344 103.183594 C 248.398438 103.183594 248.695312 102.882812 248.695312 102.519531 C 248.695312 102.152344 248.398438 101.851562 248.027344 101.851562 L 242.417969 101.851562 C 242.050781 101.851562 241.753906 102.152344 241.753906 102.519531 Z M 242.300781 98.167969 C 242.300781 98.535156 242.597656 98.832031 242.96875 98.832031 L 259.148438 98.832031 C 259.515625 98.832031 259.816406 98.535156 259.816406 98.167969 C 259.816406 97.800781 259.515625 97.5 259.148438 97.5 L 242.96875 97.5 C 242.597656 97.5 242.300781 97.800781 242.300781 98.167969 Z M 262.246094 103.183594 C 262.617188 103.183594 262.910156 102.882812 262.910156 102.519531 C 262.910156 102.152344 262.617188 101.851562 262.246094 101.851562 L 251.027344 101.851562 C 250.660156 101.851562 250.363281 102.152344 250.363281 102.519531 C 250.363281 102.882812 250.660156 103.183594 251.027344 103.183594 Z M 256.945312 111.214844 C 256.945312 110.851562 256.644531 110.550781 256.277344 110.550781 L 251.832031 110.550781 C 251.464844 110.550781 251.167969 110.851562 251.167969 111.214844 C 251.167969 111.582031 251.464844 111.882812 251.832031 111.882812 L 256.277344 111.882812 C 256.644531 111.882812 256.945312 111.582031 256.945312 111.214844 Z M 259.511719 123.601562 L 248.296875 123.601562 C 247.929688 123.601562 247.628906 123.898438 247.628906 124.265625 C 247.628906 124.632812 247.929688 124.929688 248.296875 124.929688 L 259.511719 124.929688 C 259.882812 124.929688 260.179688 124.632812 260.179688 124.265625 C 260.179688 123.898438 259.882812 123.601562 259.511719 123.601562 Z M 263.378906 116.234375 C 263.742188 116.234375 264.042969 115.933594 264.042969 115.566406 C 264.042969 115.199219 263.742188 114.902344 263.378906 114.902344 L 251.78125 114.902344 C 251.414062 114.902344 251.113281 115.199219 251.113281 115.566406 C 251.113281 115.933594 251.414062 116.234375 251.78125 116.234375 Z M 277.113281 142.949219 C 276.882812 144.789062 275.207031 146.277344 273.367188 146.277344 L 224.699219 146.277344 C 222.859375 146.277344 221.558594 144.789062 221.789062 142.949219 L 228.21875 91.792969 C 228.449219 89.953125 230.128906 88.464844 231.964844 88.464844 L 280.632812 88.464844 C 282.472656 88.464844 283.773438 89.953125 283.546875 91.792969 Z M 103.125 108.941406 L 102.507812 103.832031 C 101.910156 98.875 103.371094 94.1875 106.175781 90.570312 L 78.910156 90.570312 L 78.910156 108.867188 C 78.910156 108.890625 78.902344 108.914062 78.902344 108.941406 Z M 73.320312 89.957031 L 66.726562 89.957031 L 66.726562 105.910156 L 73.320312 105.910156 Z M 63.378906 90.570312 L 63.378906 87.960938 L 56.785156 87.960938 L 56.785156 105.910156 L 63.378906 105.910156 Z M 53.4375 92.351562 L 46.84375 92.351562 L 46.84375 105.910156 L 53.4375 105.910156 Z M 43.5 100.367188 L 36.902344 100.367188 L 36.902344 105.910156 L 43.5 105.910156 Z M 33.558594 97.546875 L 26.964844 97.546875 L 26.964844 105.910156 L 33.558594 105.910156 Z M 100.9375 128.640625 L 0.566406 128.640625 C 0.550781 128.417969 0.53125 128.195312 0.519531 127.972656 L 101.125 127.972656 L 102.949219 121.542969 C 103.734375 118.769531 103.960938 115.875 103.617188 113.011719 L 103.207031 109.605469 L 78.816406 109.605469 C 78.480469 111.085938 77.160156 112.195312 75.582031 112.195312 L 26.449219 112.195312 C 24.863281 112.195312 23.546875 111.085938 23.207031 109.605469 L 0.761719 109.605469 C 0.78125 109.382812 0.808594 109.164062 0.832031 108.941406 L 23.128906 108.941406 C 23.128906 108.914062 23.121094 108.890625 23.121094 108.867188 L 23.121094 90.570312 L 4.308594 90.570312 C 4.371094 90.347656 4.441406 90.128906 4.503906 89.90625 L 23.121094 89.90625 L 23.121094 83.089844 C 23.121094 81.25 24.609375 79.761719 26.449219 79.761719 L 75.582031 79.761719 C 77.417969 79.761719 78.910156 81.25 78.910156 83.089844 L 78.910156 89.90625 L 106.71875 89.90625 C 110.019531 86.042969 114.929688 83.554688 120.480469 83.554688 C 125.957031 83.554688 130.910156 86.003906 134.246094 89.90625 L 151.773438 89.90625 L 151.699219 90.570312 L 134.792969 90.570312 C 136.800781 93.164062 138.128906 96.328125 138.484375 99.804688 L 138.667969 101.5625 L 142.460938 108.941406 L 149.664062 108.941406 L 149.589844 109.605469 L 142.703125 109.605469 C 142.71875 110.027344 142.457031 110.4375 142.015625 110.5625 L 140.53125 111 C 140.097656 111.125 139.8125 111.535156 139.847656 111.988281 C 140.074219 114.949219 140.742188 125.511719 138.667969 126.628906 C 136.253906 127.925781 124.734375 125.597656 124.734375 125.597656 C 124.515625 126.382812 124.335938 127.175781 124.183594 127.972656 L 147.554688 127.972656 L 147.480469 128.640625 L 124.070312 128.640625 C 123.664062 131.109375 123.5625 133.621094 123.773438 136.109375 C 121.191406 135.230469 117.742188 133.878906 112.375 132.785156 C 107.230469 131.738281 102.273438 132.921875 99.457031 133.859375 Z M 85.84375 182.246094 C 85.023438 177.074219 83.945312 171.738281 82.597656 166.707031 C 82.574219 166.621094 82.550781 166.535156 82.527344 166.449219 C 82.042969 164.667969 81.53125 162.925781 80.980469 161.25 C 79.136719 155.644531 80.886719 149.945312 84.703125 146.261719 C 84.519531 146.347656 84.332031 146.417969 84.152344 146.511719 C 83.839844 146.667969 83.542969 146.835938 83.25 147.007812 L 3.101562 147.007812 C 3.148438 147.230469 3.191406 147.453125 3.238281 147.671875 L 82.222656 147.671875 C 76.46875 151.804688 74.609375 159.71875 78.171875 166.042969 L 8.339844 166.042969 C 8.414062 166.261719 8.484375 166.488281 8.5625 166.707031 L 78.542969 166.707031 Z M 148.269531 280.671875 C 150.988281 280.671875 153.710938 280.523438 156.4375 280.246094 L 139.023438 280.246094 C 142.09375 280.519531 145.179688 280.671875 148.269531 280.671875 Z M 110.964844 261.234375 C 110.320312 261.234375 109.691406 261.226562 109.070312 261.210938 L 84.121094 261.210938 C 84.488281 261.4375 84.859375 261.65625 85.226562 261.878906 L 204.925781 261.878906 C 205.269531 261.65625 205.609375 261.433594 205.949219 261.210938 L 111.777344 261.210938 C 111.503906 261.214844 111.242188 261.234375 110.964844 261.234375 Z M 84.539062 242.175781 L 58.886719 242.175781 C 59.132812 242.402344 59.375 242.621094 59.621094 242.84375 L 84.578125 242.84375 C 84.5625 242.621094 84.550781 242.402344 84.539062 242.175781 Z M 140.773438 242.84375 L 229.359375 242.84375 C 229.597656 242.621094 229.835938 242.402344 230.074219 242.175781 L 141.007812 242.175781 C 140.933594 242.394531 140.855469 242.613281 140.773438 242.84375 Z M 85.0625 223.144531 L 40.738281 223.144531 C 40.925781 223.367188 41.113281 223.585938 41.300781 223.808594 L 84.996094 223.808594 C 85.015625 223.585938 85.039062 223.363281 85.0625 223.144531 Z M 87.828125 204.109375 L 26.859375 204.109375 C 27.003906 204.332031 27.144531 204.554688 27.289062 204.773438 L 87.828125 204.773438 C 87.828125 204.558594 87.828125 204.335938 87.828125 204.109375 Z M 190.398438 213.65625 C 191.957031 213.910156 193.492188 214.152344 194.976562 214.378906 L 194.808594 214.113281 L 190.859375 213.277344 Z M 225.195312 223.144531 L 235.214844 223.144531 L 232.042969 220.933594 L 226.375 222.230469 Z M 148.328125 185.074219 L 275.292969 185.074219 C 275.160156 185.296875 275.035156 185.519531 274.90625 185.742188 L 148.667969 185.742188 C 152.882812 193.910156 156.75 200.703125 159.082031 204.109375 L 263.074219 204.109375 C 262.917969 204.332031 262.761719 204.554688 262.605469 204.773438 L 159.550781 204.773438 C 160.15625 205.617188 160.632812 206.167969 160.941406 206.375 C 163.414062 208.023438 169.527344 209.675781 176.667969 211.160156 L 187.996094 206.882812 C 189.152344 206.449219 190.449219 206.597656 191.476562 207.285156 L 197.070312 211.023438 L 199.40625 215.039062 C 203.773438 215.671875 207.363281 216.144531 209.363281 216.398438 L 215.566406 216.164062 L 228.867188 211.570312 C 230.058594 211.160156 231.382812 211.34375 232.410156 212.078125 L 238.015625 216.058594 L 241.875 223.144531 L 248.300781 223.144531 C 248.109375 223.363281 247.921875 223.589844 247.730469 223.808594 L 242.234375 223.808594 L 242.363281 224.050781 C 242.613281 224.503906 242.425781 225.074219 241.953125 225.289062 C 241.015625 225.222656 239.941406 224.757812 239.066406 224.105469 L 239.292969 225.636719 C 239.398438 226.335938 238.824219 226.953125 238.121094 226.902344 C 237.019531 226.824219 236.117188 226.007812 235.925781 224.921875 L 235.730469 223.808594 L 224.335938 223.808594 L 221.609375 225.917969 C 220.324219 226.910156 218.828125 227.574219 217.25 227.859375 C 216.222656 228.046875 215.164062 228.015625 214.128906 227.875 L 207.839844 227.007812 L 161.019531 226.675781 C 155.363281 226.4375 151.203125 225.363281 148.035156 223.808594 L 136.089844 223.808594 C 136.058594 223.703125 136.027344 223.597656 135.996094 223.488281 L 135.992188 223.488281 C 135.964844 223.398438 135.941406 223.308594 135.914062 223.21875 C 135.90625 223.195312 135.898438 223.171875 135.890625 223.144531 L 135.894531 223.144531 C 134.894531 219.746094 134.171875 216.226562 134.171875 213.117188 C 134.171875 211.34375 134.433594 209.476562 134.863281 207.542969 C 134.972656 207.566406 135.082031 207.585938 135.195312 207.605469 L 128.171875 194.046875 C 127.800781 194.125 127.425781 194.167969 127.039062 194.167969 C 123.546875 194.167969 120.097656 190.890625 117.507812 185.742188 L 16.535156 185.742188 C 16.429688 185.519531 16.316406 185.300781 16.207031 185.074219 L 117.183594 185.074219 C 115.28125 181.066406 113.886719 176.023438 113.347656 170.539062 C 112.921875 166.140625 113.101562 162.027344 113.761719 158.5 C 113.710938 153.890625 114.953125 149.863281 118.390625 148.261719 C 118.667969 148.132812 118.945312 148.03125 119.222656 147.925781 C 120.203125 147.265625 121.273438 146.910156 122.425781 146.910156 C 122.890625 146.910156 123.359375 146.976562 123.820312 147.085938 C 128.429688 147.191406 132.53125 150.136719 134.472656 155.023438 C 138.359375 164.792969 143.542969 175.777344 148.324219 185.074219 Z M 143.261719 166.707031 L 143.332031 166.042969 L 140.671875 166.042969 C 140.746094 166.261719 140.820312 166.488281 140.894531 166.707031 Z M 145.445312 147.007812 L 132.40625 147.007812 C 132.480469 147.144531 132.558594 147.28125 132.628906 147.417969 C 132.671875 147.5 132.714844 147.589844 132.757812 147.671875 L 145.371094 147.671875 Z M 301.621094 70.871094 L 12.371094 70.871094 C 12.253906 71.09375 12.136719 71.316406 12.019531 71.539062 L 301.785156 71.539062 C 301.730469 71.316406 301.675781 71.09375 301.621094 70.871094 " fill-opacity="1" fill-rule="nonzero"/></g><g clip-path="url(#a2124f3039)"><path fill="#e44d26" d="M 229.164062 206.164062 L 210.414062 206.21875 L 201.039062 206.25 L 191.664062 206.34375 L 191.664062 206.648438 L 201.039062 206.738281 L 210.414062 206.769531 L 229.164062 206.824219 L 247.910156 206.753906 L 257.289062 206.71875 L 266.660156 206.625 L 266.660156 206.367188 L 257.289062 206.273438 L 247.910156 206.234375 Z M 221.300781 58.757812 L 214.527344 58.757812 L 214.527344 59.421875 L 221.300781 59.421875 Z M 224.828125 57.203125 L 224.828125 56.535156 L 220.515625 56.535156 L 220.515625 57.203125 Z M 218.835938 56.535156 L 214.527344 56.535156 L 214.527344 57.203125 L 218.835938 57.203125 Z M 224.828125 54.316406 L 214.527344 54.316406 L 214.527344 54.984375 L 224.828125 54.984375 Z M 229.453125 7.964844 C 230.417969 7.964844 231.195312 7.183594 231.195312 6.222656 C 231.195312 5.261719 230.417969 4.480469 229.453125 4.480469 C 228.492188 4.480469 227.714844 5.261719 227.714844 6.222656 C 227.714844 7.183594 228.492188 7.964844 229.453125 7.964844 Z M 134.824219 7.964844 C 135.789062 7.964844 136.566406 7.183594 136.566406 6.222656 C 136.566406 5.261719 135.789062 4.480469 134.824219 4.480469 C 133.863281 4.480469 133.082031 5.261719 133.082031 6.222656 C 133.082031 7.183594 133.863281 7.964844 134.824219 7.964844 Z M 66.804688 60.199219 L 60.027344 60.199219 L 60.027344 60.867188 L 66.804688 60.867188 Z M 70.332031 58.644531 L 70.332031 57.980469 L 66.019531 57.980469 L 66.019531 58.644531 Z M 64.34375 57.980469 L 60.027344 57.980469 L 60.027344 58.644531 L 64.34375 58.644531 Z M 70.332031 55.761719 L 60.027344 55.761719 L 60.027344 56.425781 L 70.332031 56.425781 Z M 42.3125 7.964844 C 43.273438 7.964844 44.050781 7.183594 44.050781 6.222656 C 44.050781 5.261719 43.273438 4.480469 42.3125 4.480469 C 41.351562 4.480469 40.570312 5.261719 40.570312 6.222656 C 40.570312 7.183594 41.351562 7.964844 42.3125 7.964844 Z M 29.925781 109.109375 L 30.59375 109.109375 L 30.59375 108.398438 L 39.867188 108.398438 L 39.867188 109.109375 L 40.535156 109.109375 L 40.535156 108.398438 L 49.808594 108.398438 L 49.808594 109.109375 L 50.476562 109.109375 L 50.476562 108.398438 L 59.75 108.398438 L 59.75 109.109375 L 60.414062 109.109375 L 60.414062 108.398438 L 69.691406 108.398438 L 69.691406 109.109375 L 70.355469 109.109375 L 70.355469 108.398438 L 73.386719 108.398438 L 73.386719 107.730469 L 70.355469 107.730469 L 70.355469 107.023438 L 69.691406 107.023438 L 69.691406 107.730469 L 60.414062 107.730469 L 60.414062 107.023438 L 59.75 107.023438 L 59.75 107.730469 L 50.476562 107.730469 L 50.476562 107.023438 L 49.808594 107.023438 L 49.808594 107.730469 L 40.535156 107.730469 L 40.535156 107.023438 L 39.867188 107.023438 L 39.867188 107.730469 L 30.59375 107.730469 L 30.59375 107.023438 L 29.925781 107.023438 L 29.925781 107.730469 L 26.964844 107.730469 L 26.964844 108.398438 L 29.925781 108.398438 Z M 246.039062 83.554688 C 246.039062 83.1875 245.738281 82.890625 245.375 82.890625 L 159.371094 82.890625 C 159.003906 82.890625 158.707031 83.1875 158.707031 83.554688 C 158.707031 83.925781 159.003906 84.222656 159.371094 84.222656 L 245.375 84.222656 C 245.738281 84.222656 246.039062 83.925781 246.039062 83.554688 Z M 226.589844 178.234375 L 222.152344 178.234375 C 221.785156 178.234375 221.488281 178.535156 221.488281 178.902344 C 221.488281 179.269531 221.785156 179.566406 222.152344 179.566406 L 226.589844 179.566406 C 226.957031 179.566406 227.257812 179.269531 227.257812 178.902344 C 227.257812 178.535156 226.957031 178.234375 226.589844 178.234375 Z M 227.804688 174.554688 C 227.804688 174.183594 227.503906 173.886719 227.136719 173.886719 L 222.699219 173.886719 C 222.332031 173.886719 222.03125 174.183594 222.03125 174.554688 C 222.03125 174.921875 222.332031 175.21875 222.699219 175.21875 L 227.136719 175.21875 C 227.503906 175.21875 227.804688 174.921875 227.804688 174.554688 Z M 228.894531 165.851562 C 228.894531 165.484375 228.597656 165.1875 228.230469 165.1875 L 223.789062 165.1875 C 223.425781 165.1875 223.125 165.484375 223.125 165.851562 C 223.125 166.222656 223.425781 166.519531 223.789062 166.519531 L 228.230469 166.519531 C 228.597656 166.519531 228.894531 166.222656 228.894531 165.851562 Z M 229.441406 161.503906 C 229.441406 161.136719 229.144531 160.839844 228.777344 160.839844 L 224.339844 160.839844 C 223.96875 160.839844 223.675781 161.136719 223.675781 161.503906 C 223.675781 161.871094 223.96875 162.171875 224.339844 162.171875 L 228.777344 162.171875 C 229.144531 162.171875 229.441406 161.871094 229.441406 161.503906 Z M 229.988281 157.15625 C 229.988281 156.789062 229.691406 156.492188 229.324219 156.492188 L 224.886719 156.492188 C 224.519531 156.492188 224.21875 156.789062 224.21875 157.15625 C 224.21875 157.523438 224.519531 157.824219 224.886719 157.824219 L 229.324219 157.824219 C 229.691406 157.824219 229.988281 157.523438 229.988281 157.15625 Z M 166.875 154.585938 C 166.804688 155.128906 167.191406 155.570312 167.734375 155.570312 C 168.277344 155.570312 168.773438 155.128906 168.84375 154.585938 C 168.910156 154.042969 168.527344 153.597656 167.980469 153.597656 C 167.4375 153.597656 166.945312 154.042969 166.875 154.585938 Z M 174.902344 93.316406 C 174.835938 93.859375 175.21875 94.300781 175.765625 94.300781 C 176.308594 94.300781 176.804688 93.859375 176.871094 93.316406 C 176.9375 92.773438 176.554688 92.332031 176.011719 92.332031 C 175.46875 92.332031 174.972656 92.773438 174.902344 93.316406 Z M 184.753906 116.707031 C 184.390625 116.707031 184.089844 117.003906 184.089844 117.371094 C 184.089844 117.738281 184.390625 118.039062 184.753906 118.039062 L 192.914062 118.039062 C 193.277344 118.039062 193.578125 117.738281 193.578125 117.371094 C 193.578125 117.003906 193.277344 116.707031 192.914062 116.707031 Z M 232.484375 137.3125 C 232.484375 136.945312 232.183594 136.648438 231.816406 136.648438 L 227.378906 136.648438 C 227.011719 136.648438 226.714844 136.945312 226.714844 137.3125 C 226.714844 137.683594 227.011719 137.976562 227.378906 137.976562 L 231.816406 137.976562 C 232.183594 137.976562 232.484375 137.683594 232.484375 137.3125 Z M 233.03125 132.964844 C 233.03125 132.59375 232.730469 132.296875 232.363281 132.296875 L 227.925781 132.296875 C 227.558594 132.296875 227.257812 132.59375 227.257812 132.964844 C 227.257812 133.332031 227.558594 133.628906 227.925781 133.628906 L 232.363281 133.628906 C 232.730469 133.628906 233.03125 133.332031 233.03125 132.964844 Z M 233.574219 128.613281 C 233.574219 128.246094 233.277344 127.949219 232.910156 127.949219 L 228.472656 127.949219 C 228.105469 127.949219 227.804688 128.246094 227.804688 128.613281 C 227.804688 128.984375 228.105469 129.28125 228.472656 129.28125 L 232.910156 129.28125 C 233.277344 129.28125 233.574219 128.984375 233.574219 128.613281 Z M 234.121094 124.265625 C 234.121094 123.898438 233.824219 123.601562 233.457031 123.601562 L 229.019531 123.601562 C 228.652344 123.601562 228.355469 123.898438 228.355469 124.265625 C 228.355469 124.632812 228.652344 124.929688 229.019531 124.929688 L 233.457031 124.929688 C 233.824219 124.929688 234.121094 124.632812 234.121094 124.265625 Z M 235.214844 115.566406 C 235.214844 115.199219 234.917969 114.902344 234.550781 114.902344 L 230.113281 114.902344 C 229.746094 114.902344 229.445312 115.199219 229.445312 115.566406 C 229.445312 115.933594 229.746094 116.234375 230.113281 116.234375 L 234.550781 116.234375 C 234.917969 116.234375 235.214844 115.933594 235.214844 115.566406 Z M 235.761719 111.214844 C 235.761719 110.851562 235.464844 110.550781 235.097656 110.550781 L 230.65625 110.550781 C 230.292969 110.550781 229.992188 110.851562 229.992188 111.214844 C 229.992188 111.582031 230.292969 111.882812 230.65625 111.882812 L 235.097656 111.882812 C 235.464844 111.882812 235.761719 111.582031 235.761719 111.214844 Z M 236.308594 106.867188 C 236.308594 106.5 236.011719 106.203125 235.644531 106.203125 L 231.207031 106.203125 C 230.835938 106.203125 230.542969 106.5 230.542969 106.867188 C 230.542969 107.234375 230.835938 107.535156 231.207031 107.535156 L 235.644531 107.535156 C 236.011719 107.535156 236.308594 107.234375 236.308594 106.867188 Z M 236.855469 102.519531 C 236.855469 102.152344 236.558594 101.851562 236.1875 101.851562 L 231.753906 101.851562 C 231.382812 101.851562 231.085938 102.152344 231.085938 102.519531 C 231.085938 102.882812 231.382812 103.183594 231.753906 103.183594 L 236.1875 103.183594 C 236.558594 103.183594 236.855469 102.882812 236.855469 102.519531 Z M 237.402344 98.167969 C 237.402344 97.800781 237.105469 97.5 236.734375 97.5 L 232.300781 97.5 C 231.933594 97.5 231.632812 97.800781 231.632812 98.167969 C 231.632812 98.535156 231.933594 98.832031 232.300781 98.832031 L 236.734375 98.832031 C 237.105469 98.832031 237.402344 98.535156 237.402344 98.167969 Z M 135.40625 101.289062 L 138.539062 101.132812 C 138.691406 99.308594 139.21875 97.625 140.082031 97.199219 C 139.164062 97.105469 138.269531 97.128906 137.585938 97.429688 C 137.542969 95.121094 136.628906 93.890625 136.058594 92.4375 C 136.046875 94.097656 136.5 93.589844 136.324219 95.8125 C 136.230469 97.042969 136.480469 98.308594 136.191406 99.507812 C 136.039062 100.144531 135.742188 100.726562 135.40625 101.289062 Z M 139.207031 101.101562 L 141.816406 100.96875 C 141.617188 98.980469 140.980469 97.761719 140.515625 97.761719 C 140.042969 97.761719 139.386719 99.035156 139.207031 101.101562 Z M 141.863281 101.632812 L 139.164062 101.769531 C 139.15625 101.925781 139.15625 102.082031 139.15625 102.246094 C 139.15625 104.984375 139.960938 106.734375 140.515625 106.734375 C 141.070312 106.734375 141.878906 104.984375 141.878906 102.246094 C 141.878906 102.035156 141.871094 101.835938 141.863281 101.632812 Z M 79.097656 128.394531 C 78.375 123.632812 79.761719 118.59375 82.820312 114.878906 C 83.941406 113.519531 85.328125 112.226562 85.675781 110.496094 C 86.027344 108.710938 85.183594 106.9375 84.796875 105.164062 C 84.058594 101.773438 85.109375 98.042969 87.503906 95.53125 C 89.34375 93.609375 91.890625 92.386719 93.441406 90.222656 C 94.746094 88.410156 95.203125 86.148438 96.09375 84.105469 C 98.597656 78.371094 104.929688 74.558594 111.164062 75.019531 C 112.898438 72.863281 116.253906 71.851562 118.980469 72.332031 C 121.703125 72.8125 124.128906 74.359375 126.246094 76.140625 C 132.917969 75.117188 141.300781 81.480469 143.628906 97.992188 C 143.003906 97.804688 142.128906 97.554688 141.207031 97.371094 C 142.078125 98.113281 142.546875 100.230469 142.546875 102.246094 C 142.546875 104.742188 141.832031 107.398438 140.515625 107.398438 C 139.199219 107.398438 138.488281 104.742188 138.488281 102.246094 C 138.488281 102.097656 138.492188 101.949219 138.496094 101.804688 L 136.988281 101.878906 C 137.277344 102.03125 137.492188 102.601562 137.492188 103.285156 C 137.492188 104.085938 137.195312 104.734375 136.832031 104.734375 C 136.464844 104.734375 136.171875 104.085938 136.171875 103.285156 C 136.171875 102.621094 136.375 102.066406 136.652344 101.894531 L 134.980469 101.976562 C 134.585938 102.597656 134.183594 103.21875 133.914062 103.902344 C 132.679688 107.023438 134.429688 110.566406 133.9375 113.890625 C 133.628906 115.976562 132.460938 117.828125 131.828125 119.84375 C 130.933594 122.699219 131.5625 126.648438 132.878906 129.335938 L 123.640625 129.335938 C 123.0625 127.160156 122.320312 125.1875 122.238281 122.9375 C 121.625 125.289062 121.351562 127.4375 121.148438 129.863281 C 120.011719 126.792969 119.261719 123.808594 119.183594 120.539062 C 118.859375 123.15625 118.746094 125.773438 118.421875 128.394531 Z M 141.519531 218.238281 C 142.539062 219.519531 143.660156 220.734375 144.886719 221.839844 C 146.109375 222.949219 147.460938 223.933594 148.957031 224.6875 C 149.710938 225.046875 150.503906 225.339844 151.320312 225.542969 C 152.152344 225.726562 152.957031 225.816406 153.765625 225.929688 C 155.386719 226.132812 157.011719 226.335938 158.636719 226.484375 C 161.890625 226.792969 165.148438 226.996094 168.417969 227.054688 C 168.5 227.054688 168.570312 226.992188 168.570312 226.910156 C 168.578125 226.828125 168.511719 226.757812 168.429688 226.753906 C 166.804688 226.664062 165.179688 226.53125 163.558594 226.382812 C 161.933594 226.242188 160.316406 226.082031 158.699219 225.898438 C 157.082031 225.707031 155.464844 225.519531 153.851562 225.296875 C 153.046875 225.179688 152.230469 225.082031 151.472656 224.910156 C 150.707031 224.710938 149.964844 224.433594 149.25 224.089844 C 146.378906 222.667969 144.023438 220.347656 141.953125 217.878906 C 140.914062 216.640625 139.949219 215.332031 139.042969 213.984375 C 138.128906 212.644531 137.265625 211.257812 136.492188 209.835938 L 136.488281 209.828125 C 136.457031 209.769531 136.382812 209.746094 136.320312 209.777344 C 136.257812 209.808594 136.230469 209.882812 136.261719 209.945312 C 137.71875 212.882812 139.46875 215.667969 141.519531 218.238281 Z M 119.238281 177.996094 C 118.871094 177.777344 118.527344 177.519531 118.203125 177.238281 C 117.875 176.957031 117.578125 176.636719 117.277344 176.300781 C 117.242188 176.261719 117.183594 176.246094 117.132812 176.269531 C 117.066406 176.292969 117.035156 176.367188 117.058594 176.433594 C 117.40625 177.308594 118.082031 178.054688 118.886719 178.5625 C 119.292969 178.8125 119.71875 179.019531 120.167969 179.160156 C 120.542969 179.277344 120.925781 179.359375 121.3125 179.410156 C 122.597656 182.328125 123.925781 185.230469 125.265625 188.125 C 126.796875 191.34375 128.335938 194.558594 129.914062 197.75 C 131.5 200.945312 133.113281 204.117188 134.804688 207.261719 C 134.839844 207.332031 134.933594 207.363281 135 207.324219 C 135.078125 207.289062 135.109375 207.199219 135.070312 207.121094 C 134.285156 205.527344 133.515625 203.917969 132.753906 202.3125 L 130.445312 197.492188 L 125.867188 187.839844 C 124.339844 184.625 122.84375 181.390625 121.371094 178.152344 C 120.632812 176.53125 119.914062 174.90625 119.214844 173.273438 C 118.519531 171.636719 117.808594 169.996094 117.292969 168.308594 L 117.289062 168.300781 C 117.269531 168.234375 117.199219 168.199219 117.132812 168.214844 C 117.066406 168.234375 117.027344 168.304688 117.046875 168.371094 C 118.03125 171.824219 119.460938 175.101562 120.855469 178.378906 C 120.9375 178.5625 121.019531 178.742188 121.101562 178.925781 C 120.859375 178.820312 120.613281 178.71875 120.382812 178.609375 C 119.988281 178.421875 119.601562 178.226562 119.238281 177.996094 Z M 136.710938 114.785156 C 136.960938 114.945312 137.246094 115.046875 137.535156 115.117188 C 137.824219 115.175781 138.121094 115.203125 138.410156 115.175781 C 138.554688 115.164062 138.695312 115.136719 138.839844 115.113281 C 138.980469 115.074219 139.117188 115.035156 139.25 114.980469 C 139.292969 114.964844 139.324219 114.925781 139.332031 114.878906 C 139.339844 114.808594 139.292969 114.742188 139.21875 114.730469 C 138.671875 114.644531 138.167969 114.585938 137.683594 114.46875 C 137.441406 114.414062 137.207031 114.335938 136.96875 114.257812 C 136.738281 114.175781 136.503906 114.0625 136.285156 113.957031 L 136.253906 113.941406 C 136.210938 113.921875 136.160156 113.921875 136.113281 113.949219 C 136.039062 113.992188 136.015625 114.085938 136.058594 114.15625 C 136.222656 114.4375 136.457031 114.625 136.710938 114.785156 Z M 274.445312 227.785156 L 262.917969 210.453125 L 262.917969 210.304688 L 254.582031 210.210938 L 246.246094 210.179688 L 229.570312 210.121094 L 212.894531 210.195312 L 204.554688 210.230469 L 196.21875 210.324219 L 196.21875 210.582031 L 196.414062 210.582031 L 197.070312 211.023438 L 199.277344 214.820312 L 195.390625 214.265625 C 195.414062 214.253906 195.441406 214.246094 195.464844 214.234375 C 195.613281 214.160156 195.742188 214.042969 195.855469 213.921875 C 195.960938 213.792969 196.058594 213.652344 196.117188 213.492188 C 196.171875 213.335938 196.210938 213.167969 196.195312 212.992188 C 196.1875 212.960938 196.175781 212.925781 196.15625 212.902344 C 196.09375 212.832031 195.988281 212.824219 195.917969 212.882812 L 195.910156 212.886719 C 195.789062 212.992188 195.699219 213.09375 195.605469 213.195312 C 195.511719 213.289062 195.433594 213.390625 195.351562 213.492188 C 195.269531 213.59375 195.183594 213.6875 195.105469 213.800781 C 195.023438 213.910156 194.9375 214.019531 194.855469 214.15625 L 194.851562 214.160156 C 194.851562 214.167969 194.851562 214.167969 194.847656 214.175781 L 194.808594 214.113281 L 190.976562 213.304688 C 191 213.210938 191.023438 213.117188 191.042969 213.027344 C 191.109375 212.707031 191.128906 212.382812 191.132812 212.058594 C 191.125 211.730469 191.097656 211.40625 191.023438 211.089844 C 190.957031 210.769531 190.863281 210.457031 190.710938 210.164062 C 190.6875 210.117188 190.632812 210.082031 190.578125 210.082031 C 190.492188 210.078125 190.417969 210.148438 190.417969 210.234375 C 190.414062 210.550781 190.433594 210.855469 190.441406 211.160156 L 190.464844 212.070312 L 190.484375 212.976562 C 190.488281 213.171875 190.492188 213.371094 190.496094 213.570312 L 188.582031 213.296875 C 181.933594 212.300781 175.273438 211.289062 168.683594 209.988281 C 167.039062 209.660156 165.390625 209.328125 163.800781 208.859375 C 163.410156 208.738281 163.007812 208.605469 162.675781 208.4375 C 162.496094 208.335938 162.464844 208.316406 162.332031 208.101562 L 161.996094 207.59375 C 161.554688 206.878906 161.113281 206.164062 160.683594 205.441406 C 158.964844 202.554688 157.277344 199.640625 155.597656 196.726562 L 149.640625 186.386719 L 220.753906 186.386719 L 224.667969 201.363281 L 252.886719 201.363281 L 248.972656 186.386719 L 291.820312 186.386719 C 296 186.386719 299.511719 183.242188 299.972656 179.089844 L 310.28125 86.082031 C 310.820312 81.226562 307.019531 76.976562 302.128906 76.976562 L 157.75 76.976562 C 153.566406 76.976562 150.058594 80.121094 149.597656 84.277344 L 140.566406 165.742188 C 141.417969 168.238281 142.121094 170.667969 142.574219 172.902344 L 152.363281 84.582031 C 152.667969 81.832031 154.980469 79.761719 157.75 79.761719 L 302.128906 79.761719 C 303.6875 79.761719 305.125 80.402344 306.164062 81.566406 C 307.207031 82.726562 307.6875 84.222656 307.515625 85.777344 L 297.203125 178.78125 C 296.898438 181.527344 294.582031 183.601562 291.820312 183.601562 L 226.59375 183.601562 C 226.660156 183.5 226.707031 183.382812 226.707031 183.253906 C 226.707031 182.882812 226.410156 182.585938 226.042969 182.585938 L 221.605469 182.585938 C 221.238281 182.585938 220.941406 182.882812 220.941406 183.253906 C 220.941406 183.382812 220.988281 183.5 221.054688 183.601562 L 148.035156 183.601562 L 145.515625 179.230469 C 145.484375 179.171875 145.410156 179.148438 145.347656 179.183594 C 145.285156 179.214844 145.261719 179.292969 145.296875 179.355469 L 147.644531 183.601562 L 147.570312 183.601562 C 148.050781 184.546875 148.527344 185.476562 149 186.386719 L 149.179688 186.386719 L 150.179688 188.195312 L 155.144531 196.988281 C 156.808594 199.914062 158.46875 202.839844 160.175781 205.742188 C 160.597656 206.472656 161.035156 207.195312 161.476562 207.917969 L 161.832031 208.460938 C 161.90625 208.558594 161.914062 208.621094 162.054688 208.753906 C 162.175781 208.871094 162.277344 208.917969 162.382812 208.980469 C 162.800781 209.199219 163.203125 209.328125 163.617188 209.460938 C 165.25 209.953125 166.902344 210.296875 168.554688 210.636719 C 175.179688 211.914062 181.84375 212.878906 188.503906 213.839844 L 198.511719 215.210938 L 208.53125 216.441406 C 208.613281 216.449219 208.691406 216.394531 208.699219 216.3125 C 208.710938 216.230469 208.652344 216.152344 208.570312 216.144531 L 204.867188 215.617188 L 208.140625 210.691406 L 212.894531 210.714844 L 229.570312 210.785156 L 246.246094 210.726562 L 254.582031 210.699219 L 258.609375 210.652344 L 270.003906 227.785156 L 265.785156 227.785156 L 259.738281 220.941406 L 256.945312 222.773438 L 262.113281 227.785156 L 245.367188 227.785156 L 260.59375 218.121094 L 239.136719 218.121094 L 242.363281 224.050781 C 242.613281 224.503906 242.425781 225.074219 241.953125 225.289062 C 241.082031 225.226562 240.097656 224.816406 239.261719 224.234375 C 239.261719 224.214844 239.269531 224.199219 239.261719 224.179688 C 238.902344 223.335938 238.894531 222.402344 238.777344 221.441406 C 238.726562 220.960938 238.621094 220.464844 238.433594 219.988281 C 238.242188 219.507812 237.972656 219.074219 237.65625 218.679688 C 237.011719 217.914062 236.230469 217.308594 235.441406 216.773438 C 234.65625 216.230469 233.867188 215.726562 233.160156 215.105469 C 233.117188 215.0625 233.046875 215.0625 232.996094 215.101562 C 232.941406 215.148438 232.933594 215.226562 232.976562 215.28125 C 233.589844 216.042969 234.367188 216.636719 235.109375 217.226562 C 235.851562 217.808594 236.585938 218.386719 237.144531 219.101562 C 237.425781 219.449219 237.671875 219.824219 237.84375 220.226562 C 238.019531 220.628906 238.101562 221.074219 238.195312 221.527344 C 238.335938 222.269531 238.421875 223.089844 238.742188 223.835938 C 238.335938 223.484375 237.980469 223.101562 237.738281 222.695312 L 235.617188 219.148438 L 231.847656 218.238281 C 231.839844 218.230469 231.832031 218.21875 231.824219 218.210938 C 231.792969 218.171875 231.738281 218.152344 231.683594 218.167969 C 231.671875 218.175781 231.667969 218.1875 231.65625 218.191406 L 231.605469 218.183594 L 226.300781 222.285156 C 226.308594 222.253906 226.3125 222.226562 226.316406 222.199219 C 226.347656 221.917969 226.328125 221.640625 226.285156 221.363281 C 226.242188 221.089844 226.167969 220.820312 226.054688 220.5625 C 225.9375 220.3125 225.800781 220.066406 225.609375 219.859375 C 225.574219 219.824219 225.519531 219.800781 225.46875 219.8125 C 225.382812 219.824219 225.324219 219.910156 225.339844 219.996094 C 225.382812 220.257812 225.445312 220.5 225.492188 220.746094 C 225.535156 220.992188 225.59375 221.234375 225.632812 221.476562 C 225.679688 221.71875 225.710938 221.964844 225.753906 222.210938 C 225.777344 222.355469 225.800781 222.507812 225.824219 222.65625 L 221.609375 225.917969 C 220.410156 226.84375 219.023438 227.46875 217.5625 227.785156 L 213.46875 227.785156 L 208.277344 227.066406 C 208.59375 226.785156 208.882812 226.453125 209.082031 226.0625 C 209.339844 225.589844 209.460938 225.027344 209.378906 224.5 C 209.371094 224.4375 209.316406 224.382812 209.25 224.375 C 209.167969 224.363281 209.089844 224.421875 209.078125 224.503906 C 209.007812 224.972656 208.84375 225.394531 208.585938 225.769531 C 208.476562 225.921875 208.351562 226.0625 208.21875 226.203125 C 208.210938 225.898438 208.171875 225.597656 208.101562 225.300781 C 207.964844 224.726562 207.722656 224.179688 207.363281 223.730469 C 207.332031 223.683594 207.269531 223.667969 207.21875 223.6875 C 207.152344 223.714844 207.121094 223.785156 207.144531 223.855469 C 207.335938 224.367188 207.476562 224.878906 207.535156 225.402344 C 207.597656 225.925781 207.59375 226.445312 207.511719 226.957031 C 207.511719 226.972656 207.515625 226.988281 207.515625 227.007812 L 171.757812 226.75 L 170.195312 227.785156 L 137.4375 227.785156 C 137.523438 228.007812 137.605469 228.230469 137.6875 228.453125 L 310.332031 228.453125 L 310.332031 227.785156 Z M 38.679688 227.785156 L 38.679688 228.453125 L 113.117188 228.453125 C 117.625 228.453125 118.925781 227.785156 118.925781 227.785156 C 119.511719 227.628906 120.074219 227.414062 120.605469 227.152344 C 124.425781 225.285156 126.726562 220.933594 125.636719 216.449219 L 112.898438 164.039062 C 111.871094 159.804688 108.082031 156.828125 103.726562 156.828125 L 32.5625 156.828125 C 26.449219 156.828125 21.945312 162.550781 23.390625 168.496094 L 36.128906 220.90625 C 36.957031 224.3125 39.570312 226.898438 42.828125 227.785156 Z M 142.019531 238.179688 C 142.019531 238.179688 142.003906 238.300781 141.96875 238.511719 C 141.503906 241.292969 137.265625 261.234375 110.964844 261.234375 C 101.335938 261.234375 94.375 259.640625 90.5 258.441406 C 91.875 266.316406 98.742188 272.304688 107.007812 272.304688 L 157.601562 272.304688 C 170.132812 272.304688 182.355469 267.085938 182.355469 267.085938 L 178.425781 290.371094 L 204.222656 290.371094 C 204.222656 290.371094 207.207031 267.085938 208.492188 251.460938 C 209.246094 242.3125 202.511719 239.375 196.792969 238.511719 L 243.203125 238.511719 L 240.1875 264.457031 L 249.726562 266.039062 L 252.925781 238.511719 L 287.269531 238.511719 L 291.261719 272.921875 L 301.175781 274.5625 L 296.992188 238.511719 L 310.332031 238.511719 L 310.332031 237.847656 L 141.847656 237.847656 C 141.957031 238.058594 142.019531 238.179688 142.019531 238.179688 Z M 84.394531 237.847656 L 38.679688 237.847656 L 38.679688 238.511719 L 60.671875 238.511719 C 60.652344 238.613281 60.664062 238.714844 60.632812 238.816406 L 60.546875 239.484375 C 60.476562 239.933594 60.453125 240.386719 60.410156 240.835938 L 60.335938 242.191406 L 60.296875 242.867188 L 60.28125 243.207031 C 60.289062 243.320312 60.203125 243.425781 60.421875 243.5625 C 60.664062 243.476562 60.605469 243.359375 60.640625 243.25 L 60.703125 242.914062 L 60.820312 242.246094 L 61.0625 240.910156 C 61.117188 240.460938 61.199219 240.015625 61.238281 239.566406 L 61.304688 238.890625 C 61.296875 238.765625 61.351562 238.644531 61.328125 238.511719 L 84.40625 238.511719 C 84.402344 238.292969 84.398438 238.070312 84.394531 237.847656 Z M 197.480469 93.316406 C 197.480469 92.949219 197.179688 92.648438 196.8125 92.648438 L 186.902344 92.648438 C 186.535156 92.648438 186.234375 92.949219 186.234375 93.316406 C 186.234375 93.683594 186.535156 93.980469 186.902344 93.980469 L 196.8125 93.980469 C 197.179688 93.980469 197.480469 93.683594 197.480469 93.316406 Z M 171.175781 93.316406 C 171.105469 93.859375 171.492188 94.300781 172.035156 94.300781 C 172.578125 94.300781 173.074219 93.859375 173.144531 93.316406 C 173.214844 92.773438 172.828125 92.332031 172.28125 92.332031 C 171.742188 92.332031 171.246094 92.773438 171.175781 93.316406 Z M 168.308594 94.300781 C 167.765625 94.300781 167.378906 93.859375 167.449219 93.316406 C 167.515625 92.773438 168.011719 92.332031 168.554688 92.332031 C 169.097656 92.332031 169.484375 92.773438 169.417969 93.316406 C 169.347656 93.859375 168.851562 94.300781 168.308594 94.300781 " fill-opacity="1" fill-rule="nonzero"/></g><g clip-path="url(#bd7b714cc4)"><path fill="#444444" d="M 261.53125 201.363281 L 256.167969 201.363281 L 252.257812 186.386719 L 248.972656 186.386719 L 252.886719 201.363281 L 196.792969 201.363281 C 193.960938 201.363281 191.664062 203.660156 191.664062 206.496094 L 266.660156 206.496094 C 266.660156 203.660156 264.367188 201.363281 261.53125 201.363281 Z M 80.125 201.015625 L 69.074219 201.015625 C 68.367188 201.015625 67.769531 201.542969 67.6875 202.246094 L 58.742188 279.78125 C 58.648438 280.609375 59.296875 281.335938 60.128906 281.335938 L 71.179688 281.335938 C 71.886719 281.335938 72.484375 280.808594 72.566406 280.101562 L 81.511719 202.570312 C 81.609375 201.738281 80.960938 201.015625 80.125 201.015625 Z M 244.863281 228.101562 L 249.347656 228.101562 L 259.558594 221.390625 L 265.492188 228.101562 L 268.808594 228.101562 L 260.59375 218.121094 Z M 306.523438 76.976562 L 302.128906 76.976562 C 307.019531 76.976562 310.820312 81.226562 310.28125 86.082031 L 299.972656 179.089844 C 299.511719 183.242188 296 186.386719 291.820312 186.386719 L 296.214844 186.386719 C 300.390625 186.386719 303.90625 183.242188 304.367188 179.089844 L 314.675781 86.082031 C 315.214844 81.226562 311.410156 76.976562 306.523438 76.976562 Z M 197.480469 93.316406 C 197.480469 92.949219 197.179688 92.648438 196.8125 92.648438 L 186.902344 92.648438 C 186.535156 92.648438 186.234375 92.949219 186.234375 93.316406 C 186.234375 93.683594 186.535156 93.980469 186.902344 93.980469 L 196.8125 93.980469 C 197.179688 93.980469 197.480469 93.683594 197.480469 93.316406 Z M 172.28125 92.332031 C 171.742188 92.332031 171.246094 92.773438 171.175781 93.316406 C 171.105469 93.859375 171.492188 94.300781 172.035156 94.300781 C 172.578125 94.300781 173.074219 93.859375 173.144531 93.316406 C 173.214844 92.773438 172.828125 92.332031 172.28125 92.332031 Z M 168.554688 92.332031 C 168.011719 92.332031 167.515625 92.773438 167.449219 93.316406 C 167.378906 93.859375 167.765625 94.300781 168.308594 94.300781 C 168.851562 94.300781 169.347656 93.859375 169.417969 93.316406 C 169.484375 92.773438 169.097656 92.332031 168.554688 92.332031 Z M 176.871094 93.316406 C 176.804688 93.859375 176.308594 94.300781 175.765625 94.300781 C 175.21875 94.300781 174.835938 93.859375 174.902344 93.316406 C 174.972656 92.773438 175.46875 92.332031 176.011719 92.332031 C 176.554688 92.332031 176.9375 92.773438 176.871094 93.316406 " fill-opacity="1" fill-rule="nonzero"/></g></svg>