<svg xmlns="http://www.w3.org/2000/svg" xmlns:xlink="http://www.w3.org/1999/xlink" width="550" zoomAndPan="magnify" viewBox="0 0 412.5 333.74999" height="445" preserveAspectRatio="xMidYMid meet" version="1.0"><defs><clipPath id="b41fbb93c1"><path d="M 203 97 L 408 97 L 408 333.421875 L 203 333.421875 Z M 203 97 " clip-rule="nonzero"/></clipPath></defs><path fill="#e44d26" d="M 0.0976562 297.945312 L 139.964844 297.945312 L 139.964844 307.117188 L 0.0976562 307.117188 Z M 0.0976562 297.945312 " fill-opacity="1" fill-rule="nonzero"/><path fill="#e44d26" d="M 52.457031 180.101562 L 7.230469 155.941406 C 3.96875 154.210938 0.0976562 156.554688 0.0976562 160.222656 L 0.0976562 302.226562 C 0.0976562 304.875 2.238281 307.117188 4.988281 307.117188 L 50.21875 307.117188 C 52.867188 307.117188 55.109375 304.976562 55.109375 302.226562 L 55.109375 184.382812 C 55.003906 182.652344 54.089844 181.019531 52.457031 180.101562 Z M 52.457031 180.101562 " fill-opacity="1" fill-rule="nonzero"/><path fill="#15161a" d="M 7.433594 299.78125 L 7.433594 164.402344 L 47.671875 185.914062 L 47.671875 299.78125 Z M 7.433594 299.78125 " fill-opacity="1" fill-rule="nonzero"/><path fill="#f8ad8f" d="M 255.179688 204.976562 L 267.40625 268.28125 L 164.109375 290.707031 C 164.109375 290.707031 155.246094 288.667969 152.085938 285.507812 C 149.03125 282.246094 142.308594 281.734375 140.371094 281.226562 C 138.4375 280.820312 122.75 277.964844 122.75 277.964844 C 122.75 277.964844 119.183594 279.59375 120.914062 282.246094 C 120.914062 282.246094 131.613281 287.851562 134.261719 288.871094 C 136.910156 289.789062 140.371094 293.765625 141.1875 296.621094 C 142.003906 299.472656 139.457031 302.835938 139.457031 302.835938 L 113.273438 307.425781 L 99.625 308.75 L 86.6875 307.730469 C 86.6875 307.730469 83.9375 308.75 83.734375 310.992188 C 83.527344 313.234375 99.21875 315.578125 99.21875 315.578125 L 132.9375 321.289062 C 132.9375 321.289062 165.128906 315.886719 168.691406 315.070312 C 172.257812 314.253906 288.390625 309.566406 288.390625 309.566406 C 288.390625 309.566406 314.367188 306.710938 314.265625 283.265625 L 304.382812 201.304688 Z M 255.179688 204.976562 " fill-opacity="1" fill-rule="nonzero"/><path fill="#e44d26" d="M 240.511719 97.835938 C 240.511719 97.835938 222.480469 140.550781 228.386719 178.371094 L 232.15625 199.0625 L 301.125 109.558594 C 301.125 109.664062 257.320312 82.035156 240.511719 97.835938 Z M 240.511719 97.835938 " fill-opacity="1" fill-rule="nonzero"/><path fill="#e44d26" d="M 219.628906 26.277344 C 219.628906 26.277344 219.628906 2.523438 250.492188 1.300781 C 281.359375 0.078125 333.007812 18.9375 315.488281 77.753906 C 297.964844 136.574219 254.671875 146.359375 254.671875 146.359375 Z M 219.628906 26.277344 " fill-opacity="1" fill-rule="nonzero"/><path fill="#f8ad8f" d="M 253.144531 133.414062 C 253.144531 133.414062 289.816406 110.578125 289.613281 109.867188 C 289.410156 109.152344 283.09375 87.4375 283.09375 87.4375 C 283.09375 87.4375 270.664062 84.992188 269.542969 72.761719 C 269.542969 73.269531 275.554688 69.191406 275.859375 68.785156 C 279.019531 65.011719 279.628906 59 278 54.308594 C 277.796875 53.800781 277.589844 53.289062 277.386719 52.78125 C 275.042969 48.191406 269.136719 45.542969 264.042969 46.359375 C 259.355469 47.070312 254.160156 50.433594 253.753906 55.53125 C 249.882812 55.328125 246.214844 53.902344 243.058594 51.761719 C 236.335938 47.378906 231.34375 40.445312 227.371094 33.511719 C 225.839844 30.863281 224.414062 28.109375 223.191406 25.359375 C 222.988281 24.847656 221.5625 22.605469 221.765625 21.996094 C 221.765625 21.996094 214.941406 43.300781 216.367188 60.730469 C 216.570312 63.789062 201.800781 70.925781 213.007812 71.128906 C 213.007812 71.128906 214.839844 71.128906 214.839844 71.128906 L 214.839844 83.972656 C 214.839844 83.972656 215.042969 100.078125 227.574219 98.957031 L 245.910156 97.328125 Z M 253.144531 133.414062 " fill-opacity="1" fill-rule="nonzero"/><path fill="#e44d26" d="M 224.109375 57.671875 C 224.109375 57.96875 224.054688 58.257812 223.9375 58.53125 C 223.824219 58.804688 223.664062 59.046875 223.453125 59.257812 C 223.242188 59.46875 223 59.632812 222.726562 59.746094 C 222.453125 59.859375 222.164062 59.914062 221.867188 59.914062 C 221.570312 59.914062 221.285156 59.859375 221.011719 59.746094 C 220.738281 59.632812 220.492188 59.46875 220.285156 59.257812 C 220.074219 59.046875 219.910156 58.804688 219.796875 58.53125 C 219.683594 58.257812 219.628906 57.96875 219.628906 57.671875 C 219.628906 57.375 219.683594 57.089844 219.796875 56.816406 C 219.910156 56.539062 220.074219 56.296875 220.285156 56.085938 C 220.492188 55.875 220.738281 55.714844 221.011719 55.601562 C 221.285156 55.488281 221.570312 55.429688 221.867188 55.429688 C 222.164062 55.429688 222.453125 55.488281 222.726562 55.601562 C 223 55.714844 223.242188 55.875 223.453125 56.085938 C 223.664062 56.296875 223.824219 56.539062 223.9375 56.816406 C 224.054688 57.089844 224.109375 57.375 224.109375 57.671875 Z M 224.109375 57.671875 " fill-opacity="1" fill-rule="nonzero"/><path fill="#e44d26" d="M 215.144531 74.085938 C 217.691406 74.390625 220.339844 74.085938 222.683594 72.863281 C 223.292969 72.554688 223.804688 73.472656 223.191406 73.78125 C 220.746094 75.105469 217.894531 75.511719 215.144531 75.207031 C 214.839844 75.207031 214.636719 75.003906 214.636719 74.695312 C 214.636719 74.390625 214.839844 74.085938 215.144531 74.085938 Z M 215.144531 74.085938 " fill-opacity="1" fill-rule="nonzero"/><path fill="#e44d26" d="M 230.425781 47.886719 C 230.425781 47.988281 230.425781 47.988281 230.425781 47.886719 C 230.730469 48.089844 230.832031 48.398438 230.832031 48.703125 C 230.832031 49.007812 230.527344 49.3125 230.324219 49.414062 C 229.40625 49.824219 227.980469 49.824219 227.0625 49.722656 C 225.839844 49.722656 224.617188 49.621094 223.398438 49.414062 C 221.5625 49.210938 219.832031 48.804688 218.304688 47.886719 C 218.097656 47.785156 217.792969 47.582031 217.691406 47.378906 C 217.285156 46.867188 217.589844 46.253906 218.203125 45.949219 C 219.933594 45.238281 222.582031 45.542969 224.515625 45.746094 C 226.25 46.152344 228.796875 46.664062 230.425781 47.886719 Z M 230.425781 47.886719 " fill-opacity="1" fill-rule="nonzero"/><path fill="#e44d26" d="M 269.035156 52.371094 C 266.792969 53.59375 265.265625 55.734375 264.144531 57.980469 C 262.820312 60.628906 261.902344 63.484375 261.292969 66.335938 C 261.089844 67.050781 261.699219 67.5625 262.3125 67.5625 C 262.3125 67.5625 262.414062 67.5625 262.414062 67.5625 L 262.617188 67.5625 C 262.820312 67.5625 263.023438 67.460938 263.328125 67.253906 C 264.757812 65.828125 265.976562 64.195312 266.996094 62.464844 C 267.507812 61.648438 267.8125 60.628906 267.8125 59.609375 C 267.710938 58.792969 267.40625 57.980469 266.589844 57.570312 C 267.40625 56.144531 268.523438 54.820312 270.054688 54.105469 C 271.070312 53.492188 270.15625 51.761719 269.035156 52.371094 Z M 269.035156 52.371094 " fill-opacity="1" fill-rule="nonzero"/><path fill="#f8ad8f" d="M 127.128906 270.421875 L 101.152344 251.867188 L 68.757812 255.4375 L 56.839844 271.441406 C 56.839844 271.441406 56.535156 275.722656 60.914062 274.292969 L 70.285156 264.609375 C 70.285156 264.609375 70.082031 268.789062 73.75 270.113281 C 73.75 270.113281 70.386719 275.007812 75.582031 277.863281 C 75.582031 277.863281 73.136719 281.023438 76.296875 283.875 L 86.992188 290.910156 C 86.992188 290.910156 90.457031 290.910156 90.050781 287.242188 L 85.769531 282.449219 C 85.769531 282.449219 88.316406 282.347656 90.761719 280.613281 C 90.761719 280.613281 112.5625 300.492188 123.257812 291.214844 Z M 127.128906 270.421875 " fill-opacity="1" fill-rule="nonzero"/><g clip-path="url(#b41fbb93c1)"><path fill="#000000" d="M 407.78125 333.828125 L 277.589844 333.828125 L 272.703125 289.175781 C 272.703125 289.175781 272.703125 281.734375 265.570312 273.886719 C 258.441406 266.039062 258.746094 254.519531 258.746094 254.519531 C 258.746094 254.519531 242.242188 298.351562 242.242188 298.351562 C 240.207031 303.652344 235.722656 308.953125 231.34375 312.316406 C 222.480469 319.148438 211.273438 317.71875 203.023438 311.707031 C 207.914062 292.03125 211.578125 272.050781 215.757812 252.378906 L 236.945312 177.859375 C 236.945312 177.859375 242.546875 153.902344 251.714844 148.5 L 252.023438 140.855469 L 252.429688 127.398438 L 298.269531 97.023438 L 302.957031 117.511719 L 303.058594 118.019531 C 303.058594 118.019531 411.652344 170.929688 407.78125 333.828125 Z M 407.78125 333.828125 " fill-opacity="1" fill-rule="nonzero"/></g><path fill="#e44d26" d="M 307.132812 304.265625 C 327.8125 310.789062 349.410156 314.253906 371.109375 314.457031 C 372.535156 314.457031 372.535156 316.597656 371.109375 316.597656 C 349.207031 316.394531 327.507812 312.929688 306.625 306.304688 C 305.300781 305.894531 305.808594 303.855469 307.132812 304.265625 Z M 307.132812 304.265625 " fill-opacity="1" fill-rule="nonzero"/><path fill="#e44d26" d="M 250.699219 149.316406 C 257.929688 144.21875 266.792969 141.773438 275.65625 142.28125 C 276.367188 142.28125 276.367188 143.402344 275.65625 143.402344 C 266.996094 142.792969 258.339844 145.238281 251.308594 150.234375 C 250.699219 150.640625 250.1875 149.722656 250.699219 149.316406 Z M 250.699219 149.316406 " fill-opacity="1" fill-rule="nonzero"/><path fill="#e44d26" d="M 70.082031 264.304688 C 71 261.550781 74.054688 260.738281 76.398438 260.125 C 79.25 259.308594 82.101562 258.699219 85.058594 258.1875 C 85.566406 258.085938 85.667969 258.902344 85.160156 259.003906 C 82.613281 259.511719 79.964844 260.023438 77.417969 260.738281 C 75.175781 261.347656 71.8125 261.859375 70.898438 264.609375 C 70.695312 265.121094 69.878906 264.8125 70.082031 264.304688 Z M 70.082031 264.304688 " fill-opacity="1" fill-rule="nonzero"/><path fill="#e44d26" d="M 73.648438 269.910156 C 77.113281 268.585938 80.472656 267.160156 83.9375 265.832031 C 84.445312 265.628906 84.75 266.445312 84.242188 266.648438 C 80.777344 267.972656 77.417969 269.402344 73.953125 270.726562 C 73.445312 270.828125 73.136719 270.113281 73.648438 269.910156 Z M 73.648438 269.910156 " fill-opacity="1" fill-rule="nonzero"/><path fill="#e44d26" d="M 75.480469 277.453125 C 76.195312 276.84375 77.007812 276.433594 77.824219 276.128906 C 78.742188 275.722656 79.65625 275.3125 80.675781 274.90625 C 82.613281 274.089844 84.445312 273.171875 86.382812 272.359375 C 86.890625 272.152344 87.195312 272.867188 86.6875 273.171875 C 84.851562 273.988281 83.019531 274.804688 81.1875 275.621094 C 80.269531 276.027344 79.351562 276.433594 78.4375 276.84375 C 77.621094 277.25 76.703125 277.554688 75.992188 278.167969 C 75.582031 278.472656 75.074219 277.863281 75.480469 277.453125 Z M 75.480469 277.453125 " fill-opacity="1" fill-rule="nonzero"/><path fill="#e44d26" d="M 84.039062 281.53125 C 83.835938 281.429688 83.835938 281.125 83.9375 280.921875 C 84.039062 280.714844 84.34375 280.613281 84.546875 280.820312 C 85.058594 281.328125 85.566406 281.734375 86.179688 282.246094 C 86.382812 282.347656 86.382812 282.652344 86.28125 282.855469 C 86.179688 283.0625 85.871094 283.164062 85.667969 282.960938 C 85.058594 282.449219 84.546875 282.042969 84.039062 281.53125 Z M 84.039062 281.53125 " fill-opacity="1" fill-rule="nonzero"/><path fill="#e44d26" d="M 115.820312 289.28125 C 115.617188 289.175781 115.617188 288.871094 115.71875 288.667969 C 115.820312 288.464844 116.128906 288.363281 116.332031 288.566406 C 117.144531 289.28125 118.164062 289.585938 119.285156 289.382812 C 119.792969 289.28125 119.898438 290.09375 119.386719 290.195312 C 118.0625 290.402344 116.738281 290.09375 115.820312 289.28125 Z M 115.820312 289.28125 " fill-opacity="1" fill-rule="nonzero"/><path fill="#e44d26" d="M 93.816406 270.421875 C 94.125 269.503906 94.328125 268.382812 94.226562 267.464844 C 94.226562 267.261719 94.328125 266.953125 94.632812 266.953125 C 94.835938 266.953125 95.039062 267.058594 95.140625 267.261719 C 95.246094 268.382812 95.039062 269.605469 94.632812 270.726562 C 94.53125 270.929688 94.328125 271.132812 94.125 271.03125 C 93.816406 270.929688 93.714844 270.726562 93.816406 270.421875 Z M 93.816406 270.421875 " fill-opacity="1" fill-rule="nonzero"/><path fill="#e44d26" d="M 258.746094 254.621094 C 258.746094 254.621094 258.542969 266.851562 264.550781 272.765625 L 276.265625 205.6875 Z M 258.746094 254.621094 " fill-opacity="1" fill-rule="nonzero"/><path fill="#f8ad8f" d="M 211.476562 272.765625 L 125.601562 270.21875 L 121.425781 291.214844 L 213.921875 316.597656 L 211.785156 274.292969 Z M 211.476562 272.765625 " fill-opacity="1" fill-rule="nonzero"/><path fill="#e44d26" d="M 199.761719 312.011719 C 184.480469 308.035156 169.203125 303.753906 154.125 299.066406 C 149.847656 297.742188 145.464844 296.414062 141.1875 295.089844 C 140.472656 294.886719 140.066406 296.007812 140.882812 296.3125 C 155.957031 301.105469 171.136719 305.589844 186.417969 309.769531 C 190.796875 310.992188 195.078125 312.113281 199.457031 313.234375 C 200.273438 313.335938 200.578125 312.214844 199.761719 312.011719 Z M 199.761719 312.011719 " fill-opacity="1" fill-rule="nonzero"/></svg>