<svg xmlns="http://www.w3.org/2000/svg" xmlns:xlink="http://www.w3.org/1999/xlink" width="500" zoomAndPan="magnify" viewBox="0 0 375 374.999991" height="500" preserveAspectRatio="xMidYMid meet" version="1.0"><defs><clipPath id="9eec4c1717"><path d="M 0 8.957031 L 375 8.957031 L 375 365.957031 L 0 365.957031 Z M 0 8.957031 " clip-rule="nonzero"/></clipPath></defs><g clip-path="url(#9eec4c1717)"><path fill="#e44d26" d="M 368.535156 128.28125 C 348.246094 53.589844 286.871094 8.992188 204.34375 8.992188 L 0.00390625 8.992188 L 4.035156 18.230469 C 21.351562 57.917969 60.539062 83.574219 103.855469 83.589844 L 159.5 83.589844 L 159.957031 83.574219 C 162.070312 83.425781 169.882812 82.949219 181.605469 82.949219 C 192.878906 82.949219 204.363281 83.394531 215.703125 84.261719 L 216.816406 84.347656 C 260.230469 87.761719 319.707031 99.109375 356.464844 133.703125 L 356.933594 134.144531 C 357.128906 134.328125 357.320312 134.503906 357.503906 134.691406 L 374.996094 152.109375 Z M 374.132812 214.367188 L 374.085938 215.082031 C 363.046875 308.148438 297.308594 365.957031 202.527344 365.957031 L 72.160156 365.957031 L 72.160156 189.761719 L 78.757812 189.761719 C 116.921875 189.761719 147.972656 220.804688 147.972656 258.960938 L 147.972656 290.15625 L 205.707031 290.15625 C 234.144531 290.15625 258.089844 280.820312 274.96875 263.15625 C 292.140625 245.175781 301.214844 219.191406 301.214844 188.011719 L 301.214844 186.941406 C 301.214844 162.800781 295.90625 141.984375 285.429688 125.058594 L 275.648438 109.265625 L 293.203125 115.355469 C 314.984375 122.910156 332.652344 132.972656 345.710938 145.273438 C 364.796875 163.242188 374.355469 186.488281 374.132812 214.367188 " fill-opacity="1" fill-rule="nonzero"/></g></svg>